<svg width="20" height="20" viewBox="0 0 20 20" fill="none" xmlns="http://www.w3.org/2000/svg">
<path d="M18.3333 3.89162V13.95C18.3333 14.75 17.6833 15.4999 16.8833 15.5999L16.6083 15.6333C14.7916 15.875 11.9916 16.7999 10.3916 17.6833C10.1749 17.8083 9.81663 17.8083 9.59163 17.6833L9.55827 17.6666C7.95827 16.7916 5.16665 15.875 3.35832 15.6333L3.11662 15.5999C2.31662 15.4999 1.66663 14.75 1.66663 13.95V3.88328C1.66663 2.89161 2.47494 2.14162 3.4666 2.22495C5.2166 2.36662 7.8666 3.24998 9.34994 4.17498L9.55827 4.29995C9.79994 4.44995 10.2 4.44995 10.4417 4.29995L10.5833 4.20829C11.1083 3.88329 11.775 3.55829 12.5 3.26662V6.66663L14.1666 5.55829L15.8333 6.66663V2.31666C16.0583 2.27499 16.275 2.24996 16.475 2.2333H16.525C17.5166 2.14996 18.3333 2.89162 18.3333 3.89162Z" stroke="#CCCCCC" stroke-width="1.5" stroke-linecap="round" stroke-linejoin="round"/>
<path d="M10 4.57495V17.075" stroke="#CCCCCC" stroke-width="1.5" stroke-linecap="round" stroke-linejoin="round"/>
<path d="M15.8333 2.31665V6.66663L14.1667 5.55828L12.5 6.66663V3.26661C13.5917 2.83328 14.8083 2.48332 15.8333 2.31665Z" stroke="#CCCCCC" stroke-width="1.5" stroke-linecap="round" stroke-linejoin="round"/>
</svg>
