<svg width="28" height="28" viewBox="0 0 28 28" fill="none" xmlns="http://www.w3.org/2000/svg">
<path d="M21.4009 12.2882C21.0023 12.6886 20.6971 13.1718 20.5069 13.7033C20.3168 14.2349 20.2464 14.8018 20.3008 15.3637L20.2818 15.3448C20.3378 16.0062 20.2484 16.6717 20.0201 17.2951C19.7918 17.9184 19.43 18.4845 18.96 18.9538C18.4899 19.4231 17.9229 19.7844 17.2985 20.0122C16.6742 20.2402 16.0075 20.3294 15.3452 20.2736L15.3641 20.2925C14.5718 20.2189 13.7759 20.391 13.0851 20.7855C12.3943 21.18 11.8422 21.7775 11.5041 22.4968C11.1659 23.2161 11.0581 24.0218 11.1955 24.8045C11.333 25.5871 11.7087 26.3084 12.2717 26.8699C12.8347 27.4315 13.5574 27.806 14.3413 27.9424C15.1254 28.0789 15.9323 27.9705 16.6524 27.6323C17.3725 27.294 17.9705 26.7423 18.365 26.0523C18.7595 25.3622 18.9313 24.5675 18.8568 23.7765L18.8768 23.7954C18.8208 23.134 18.9101 22.4684 19.1384 21.845C19.3668 21.2218 19.7287 20.6557 20.1987 20.1863C20.6688 19.7171 21.2357 19.3558 21.86 19.1279C22.4844 18.9 23.151 18.8107 23.8134 18.8666L23.7935 18.8477C24.4407 18.9057 25.0922 18.7998 25.6876 18.5396C26.2828 18.2794 26.8028 17.8734 27.1991 17.3592C27.5953 16.845 27.8553 16.2391 27.9546 15.598C28.054 14.9567 27.9896 14.3009 27.7675 13.691C27.5454 13.0813 27.1727 12.5374 26.6839 12.1097C26.1952 11.682 25.6063 11.3844 24.9717 11.2446C24.3371 11.1047 23.6774 11.127 23.0537 11.3094C22.43 11.4919 21.8627 11.8285 21.404 12.2882H21.4009Z" fill="#1B84FF"/>
<path d="M13.6424 17.8164L13.6224 17.7975C14.1854 17.8541 14.754 17.7851 15.2871 17.5954C15.8201 17.4058 16.3043 17.1004 16.7045 16.701C17.1047 16.3017 17.4112 15.8185 17.6014 15.2865C17.7918 14.7544 17.8613 14.1869 17.805 13.6247L17.825 13.6436C17.7691 12.9822 17.8585 12.3167 18.0867 11.6933C18.315 11.07 18.6769 10.5039 19.1469 10.0346C19.617 9.56532 20.184 9.20401 20.8083 8.97616C21.4327 8.74816 22.0992 8.65898 22.7617 8.71481L22.7417 8.69591C23.5342 8.77025 24.3302 8.59863 25.0214 8.2046C25.7126 7.81057 26.2652 7.21325 26.6039 6.49412C26.9425 5.77501 27.0507 4.96909 26.9138 4.18629C26.7769 3.40349 26.4014 2.68194 25.8385 2.12003C25.2758 1.55814 24.553 1.18324 23.769 1.0465C22.985 0.909761 22.1778 1.01782 21.4575 1.35595C20.7372 1.69406 20.139 2.24579 19.7443 2.93588C19.3496 3.62595 19.1777 4.42078 19.2522 5.21195L19.2332 5.192C19.2893 5.85339 19.2001 6.51904 18.9719 7.14246C18.7437 7.76588 18.3818 8.33204 17.9118 8.80143C17.4417 9.27069 16.8746 9.632 16.2502 9.85985C15.6257 10.0877 14.959 10.1767 14.2966 10.1208L14.3155 10.1407C13.7525 10.0841 13.1839 10.1531 12.6509 10.3428C12.1179 10.5323 11.6337 10.8378 11.2334 11.2372C10.8331 11.6365 10.5268 12.1197 10.3364 12.6517C10.1462 13.1838 10.0766 13.7513 10.1329 14.3135L10.114 14.2946C10.1697 14.9559 10.0802 15.6214 9.8519 16.2447C9.62347 16.8679 9.26169 17.434 8.79168 17.9032C8.32164 18.3725 7.75473 18.7337 7.13049 18.9617C6.50624 19.1897 5.83969 19.279 5.17732 19.2234L5.19625 19.2423C4.40381 19.1679 3.60771 19.3395 2.91653 19.7336C2.22535 20.1277 1.67274 20.7249 1.33408 21.4441C0.995412 22.1632 0.887171 22.9691 1.02413 23.7519C1.1611 24.5347 1.53659 25.2563 2.09939 25.8181C2.66219 26.3801 3.3849 26.755 4.16895 26.8917C4.953 27.0284 5.76021 26.9203 6.48048 26.5822C7.20075 26.2441 7.79903 25.6924 8.19369 25.0024C8.58839 24.3122 8.76024 23.5174 8.68578 22.7263L8.70576 22.7452C8.64981 22.0837 8.7392 21.4182 8.96753 20.7948C9.19575 20.1716 9.55764 19.6055 10.0276 19.1361C10.4977 18.6669 11.0647 18.3056 11.689 18.0777C12.3134 17.8498 12.98 17.7605 13.6424 17.8164Z" fill="#1B84FF"/>
<path d="M6.59403 15.7093C6.99265 15.309 7.29783 14.8258 7.48781 14.2942C7.67779 13.7626 7.74787 13.1955 7.69306 12.6338L7.71303 12.6527C7.65708 11.9912 7.74643 11.3254 7.97487 10.7019C8.20331 10.0784 8.56534 9.51219 9.03565 9.04283C9.50597 8.57349 10.0732 8.2123 10.6978 7.9845C11.3224 7.75668 11.9892 7.66775 12.6518 7.7239L12.6318 7.705C13.424 7.7791 14.2198 7.60743 14.9106 7.21343C15.6015 6.81943 16.1537 6.22225 16.4923 5.50336C16.8307 4.78445 16.9388 3.97882 16.8019 3.19632C16.665 2.41381 16.2895 1.69254 15.727 1.13084C15.1644 0.569142 14.4419 0.194369 13.6582 0.057636C12.8745 -0.0791079 12.0675 0.028855 11.3475 0.366772C10.6274 0.704689 10.0293 1.25613 9.6347 1.94588C9.24 2.63564 9.06805 3.43015 9.1423 4.22104L9.12337 4.20214C9.17932 4.8635 9.08992 5.52907 8.8616 6.1524C8.63328 6.77574 8.27151 7.34181 7.80145 7.81113C7.33139 8.28044 6.7644 8.64168 6.14007 8.86958C5.51574 9.09754 4.84911 9.18679 4.1867 9.13093L4.20563 9.14983C3.55838 9.09187 2.90695 9.19802 2.31171 9.45832C1.71647 9.71862 1.19667 10.1248 0.800488 10.6391C0.404303 11.1533 0.144555 11.7591 0.0452954 12.4003C-0.0539532 13.0415 0.0105053 13.6973 0.232697 14.307C0.454889 14.9167 0.827642 15.4605 1.3164 15.8881C1.80515 16.3158 2.3941 16.6133 3.02868 16.7531C3.66324 16.8929 4.32289 16.8705 4.94652 16.6881C5.57013 16.5056 6.13752 16.169 6.59613 15.7093H6.59403Z" fill="#1B84FF"/>
</svg>
