<svg width="443" height="491" viewBox="0 0 443 491" fill="none" xmlns="http://www.w3.org/2000/svg">
<path fill-rule="evenodd" clip-rule="evenodd" d="M228.872 316.426C312.734 302.662 340.54 258.937 340.54 258.937C340.54 258.937 212.951 236.552 143.375 243.846C73.799 251.14 40.2419 258.937 40.2419 258.937L0.59082 301.034C62.8621 327.619 145.009 330.191 228.872 316.426Z" fill="#1B84FF"/>
<path fill-rule="evenodd" clip-rule="evenodd" d="M335.556 391.861C335.556 391.861 327.465 400.722 319.07 404.922C310.696 409.142 305.147 412.337 307.125 417.34C309.082 422.343 324.478 420.977 335.556 417.34C346.634 413.703 354.787 407.976 355.513 406.308C356.24 404.641 355.089 392.363 353.778 389.248C352.466 386.134 335.556 391.861 335.556 391.861Z" fill="white" stroke="#1B1B1B" stroke-width="1.00918" stroke-linecap="round" stroke-linejoin="round"/>
<path fill-rule="evenodd" clip-rule="evenodd" d="M414.414 361.518C414.414 361.518 416.957 375.383 416.513 384.164C416.089 392.945 414.192 400.36 420.468 402.53C426.723 404.7 435.682 395.497 439.476 379.02C443.27 362.543 441.312 349.18 441.231 348.377C441.151 347.593 431.243 344.097 430.436 343.956C429.649 343.815 414.414 361.518 414.414 361.518Z" fill="white" stroke="#1B1B1B" stroke-width="1.00918" stroke-linecap="round" stroke-linejoin="round"/>
<path fill-rule="evenodd" clip-rule="evenodd" d="M308.295 182.038C308.295 182.038 301.151 192.487 308.718 248.81C316.305 305.134 331.54 392.885 332.126 393.468C335.475 396.804 351.981 392.624 356.4 389.972C352.768 339.174 351.174 289.159 348.531 238.422L350.569 238.14C350.569 238.14 356.824 280.459 364.855 303.688C372.866 326.896 411.65 363.347 413.526 364.492C415.423 365.658 421.84 361.599 427.974 355.932C434.088 350.266 433.281 343.373 433.281 343.373C433.281 343.373 397.424 298.383 396.556 290.405C395.688 282.408 391.168 203.88 389.413 193.431C387.657 182.982 387.233 182.098 387.233 182.098L308.295 182.038Z" fill="#1B1B1B" stroke="#1B1B1B" stroke-width="0.403674" stroke-linecap="round" stroke-linejoin="round"/>
<path fill-rule="evenodd" clip-rule="evenodd" d="M294.372 118.077L292.031 140.582L273.749 201.447L285.675 209.686C285.675 209.686 312.734 154.085 315.499 142.029C318.263 129.992 318.99 120.689 318.99 120.689L294.372 118.077Z" fill="white" stroke="#1B1B1B" stroke-width="1.00918" stroke-linecap="round" stroke-linejoin="round"/>
<path fill-rule="evenodd" clip-rule="evenodd" d="M310.716 81.0239C310.716 81.0239 330.612 67.0585 355.896 71.5797C388.707 77.4472 397.424 91.4126 395.124 122.82L383.158 124.266C383.158 124.266 381.261 139.076 383.884 155.633C385.297 164.515 387.173 172.693 388.606 178.36C388.626 178.702 388.727 179.103 388.929 179.606C389.151 180.51 389.373 181.334 389.574 182.077C389.958 185.493 387.738 187.483 385.841 188.528C378.698 191.501 364.331 196.324 346.715 196.123C329.2 195.922 315.499 192.205 308.698 189.914C303.553 187.784 305.712 183.544 307.024 179.847C308.557 175.245 312.149 165.801 312.674 161.501C313.34 156.216 313.34 151.414 313.34 151.414C313.34 151.414 304.885 145.767 303.634 139.076C302.403 132.405 304.723 123.121 304.723 123.121L290.154 120.067C290.154 120.067 292.313 92.0757 310.716 81.0239Z" fill="#1B84FF"/>
<path fill-rule="evenodd" clip-rule="evenodd" d="M363.14 126.497L383.158 124.267L391.592 123.242C391.592 123.242 390.684 148.199 375.248 169.82C359.791 191.442 343.325 202.634 343.325 202.634C343.325 202.634 343.527 208.582 343.244 210.25C342.962 211.918 342.296 214.389 342.296 214.389C342.296 214.389 345.363 214.028 344.637 217.444C343.91 220.839 339.895 224.617 336.828 226.225C333.76 227.812 331.662 225.3 331.662 225.3C331.662 225.3 329.301 225.099 328.05 224.537C326.819 223.994 326.234 223.05 326.234 223.05C326.234 223.05 323.066 222.869 321.532 221.281C319.999 219.674 318.768 213.304 318.768 213.304C318.768 213.304 306.66 223.592 303.755 223.733C300.829 223.874 301.555 222.025 303.775 219.152C305.995 216.298 315.559 207.859 318.324 204.885C321.088 201.911 335.819 182.741 335.819 182.741L361.546 145.145L363.14 126.497Z" fill="white"/>
<path fill-rule="evenodd" clip-rule="evenodd" d="M306.68 14.673C294.29 22.5097 294.432 29.623 296.328 40.6547C298.306 52.0883 308.678 74.5334 323.166 73.2474C312.774 99.6511 340.883 101.741 346.694 82.0285C348.147 77.0854 348.45 70.8562 348.45 70.8562L343.123 49.7975C343.123 49.7975 350.185 46.2208 350.044 39.1677C349.903 32.1348 344.071 32.5568 344.071 32.5568C344.878 12.1813 321.148 5.53015 306.68 14.673Z" fill="white"/>
<path d="M322.073 46.8993C323.047 46.7811 323.724 45.7611 323.584 44.6212C323.444 43.4813 322.542 42.653 321.568 42.7713C320.594 42.8895 319.918 43.9094 320.057 45.0494C320.197 46.1893 321.1 47.0175 322.073 46.8993Z" fill="#1B1B1B"/>
<path d="M304.328 49.661C305.302 49.5428 305.978 48.5228 305.838 47.3829C305.699 46.243 304.796 45.4147 303.822 45.533C302.849 45.6512 302.172 46.6712 302.312 47.8111C302.451 48.951 303.354 49.7793 304.328 49.661Z" fill="#1B1B1B"/>
<path d="M311.403 45.1963C311.403 45.1963 311.746 50.1394 311.746 52.39C311.746 54.6405 311.484 55.7859 311.484 55.7859L316.185 56.228" stroke="#1B1B1B" stroke-width="1.00918" stroke-linecap="round" stroke-linejoin="round"/>
<path fill-rule="evenodd" clip-rule="evenodd" d="M318.142 60.287L324.861 57.0317C324.861 57.0317 325.87 61.7137 322.601 62.8791C319.312 64.0245 318.142 60.287 318.142 60.287Z" stroke="#1B1B1B" stroke-width="1.00918" stroke-linecap="round" stroke-linejoin="round"/>
<path d="M318.323 37.5C318.323 37.5 320.119 37.0981 322.157 37.0981C324.195 37.0981 324.74 37.2187 324.74 37.2187" stroke="#1B1B1B" stroke-width="1.00918" stroke-linecap="round" stroke-linejoin="round"/>
<path d="M305.107 39.6294C305.107 39.6294 303.674 39.7299 301.858 40.3528C300.042 40.9757 299.194 41.6589 299.194 41.6589" stroke="#1B1B1B" stroke-width="1.00918" stroke-linecap="round" stroke-linejoin="round"/>
<path d="M343.022 45.7189C343.022 45.7189 342.295 42.9258 342.759 40.0926C343.244 37.2593 345.544 35.8125 345.544 35.8125" stroke="#1B1B1B" stroke-width="1.00918" stroke-linecap="round" stroke-linejoin="round"/>
<path d="M345.969 41.0774L342.76 40.0928" stroke="#1B1B1B" stroke-width="1.00918" stroke-linecap="round" stroke-linejoin="round"/>
<path d="M316.548 61.0096L318.141 60.2866" stroke="#1B1B1B" stroke-width="1.00918" stroke-linecap="round" stroke-linejoin="round"/>
<path d="M335.032 62.7778C333.397 68.2032 329.987 70.5744 325.326 72.4431" stroke="#1B1B1B" stroke-width="1.00918" stroke-linecap="round" stroke-linejoin="round"/>
<path d="M324.983 78.9348L323.61 74.6748" stroke="#1B1B1B" stroke-width="1.00918" stroke-linecap="round" stroke-linejoin="round"/>
<path d="M308.638 108.271L305.752 120.489" stroke="#1B1B1B" stroke-width="1.00918" stroke-linecap="round" stroke-linejoin="round"/>
<path d="M339.652 111.547C340.845 111.547 341.811 110.521 341.811 109.256C341.811 107.991 340.845 106.965 339.652 106.965C338.46 106.965 337.493 107.991 337.493 109.256C337.493 110.521 338.46 111.547 339.652 111.547Z" fill="#1B1B1B"/>
<path d="M323.974 216.056C323.974 216.056 324.438 219.352 324.882 220.477C325.305 221.602 326.234 223.049 326.234 223.049" stroke="#1B1B1B" stroke-width="1.00918" stroke-linecap="round" stroke-linejoin="round"/>
<path d="M329.805 217.583C329.805 217.583 330.31 220.878 330.673 222.084C331.036 223.27 331.662 225.299 331.662 225.299" stroke="#1B1B1B" stroke-width="1.00918" stroke-linecap="round" stroke-linejoin="round"/>
<path d="M335.879 222.628C335.879 222.628 338.361 220.739 339.894 218.569C341.428 216.378 342.296 214.389 342.296 214.389" stroke="#1B1B1B" stroke-width="1.00918" stroke-linecap="round" stroke-linejoin="round"/>
<path d="M318.082 77.0657C310.999 111.728 358.742 102.605 355.19 71.4595" stroke="#1862B8" stroke-width="1.00918" stroke-linecap="round" stroke-linejoin="round"/>
<path d="M330.309 121.553C330.874 114.219 330.713 113.375 331.338 99.2285" stroke="#1862B8" stroke-width="1.00918" stroke-linecap="round" stroke-linejoin="round"/>
<path d="M391.592 123.242C391.592 123.242 390.684 148.199 375.248 169.82C359.791 191.442 343.325 202.634 343.325 202.634C343.325 202.634 343.527 208.582 343.244 210.25C342.962 211.918 342.296 214.389 342.296 214.389C342.296 214.389 345.363 214.028 344.637 217.444C343.91 220.839 339.895 224.617 336.828 226.225C333.76 227.812 331.662 225.3 331.662 225.3C331.662 225.3 329.301 225.099 328.05 224.537C326.819 223.994 326.234 223.05 326.234 223.05C326.234 223.05 323.066 222.869 321.532 221.281C319.999 219.674 318.768 213.304 318.768 213.304C318.768 213.304 306.66 223.592 303.755 223.733C300.829 223.874 301.555 222.025 303.775 219.152C305.995 216.298 315.559 207.859 318.324 204.885C321.088 201.911 335.819 182.741 335.819 182.741L361.546 145.145L363.14 126.497" stroke="#1B1B1B" stroke-width="1.00918" stroke-linecap="round" stroke-linejoin="round"/>
<path d="M367.196 146.49L361.546 145.144" stroke="#1B1B1B" stroke-width="1.00918" stroke-linecap="round" stroke-linejoin="round"/>
<path d="M296.571 141.386L292.031 140.583" stroke="#1B1B1B" stroke-width="1.00918" stroke-linecap="round" stroke-linejoin="round"/>
<path d="M360.86 110.622L360.093 126.255L377.669 124.889" stroke="#1B1B1B" stroke-width="1.00918" stroke-linecap="round" stroke-linejoin="round"/>
<path fill-rule="evenodd" clip-rule="evenodd" d="M303.432 7.57984C287.834 20.219 285.352 49.5364 290.316 72.4638C292.173 81.0842 295.482 87.5545 299.8 91.6939C302.585 87.5545 306.136 83.7567 310.717 81.0239C310.717 81.0239 315.116 78.0299 322.421 75.277C322.642 74.6139 322.885 73.9307 323.167 73.2475C308.679 74.5335 298.307 52.0884 296.33 40.6548C295.946 38.344 295.623 36.1939 295.482 34.1845L295.502 34.506C299.679 33.2401 310.677 29.7236 315.701 26.2875C321.956 22.0074 325.467 18.3101 325.467 18.3101C325.467 18.3101 325.165 25.2024 328.232 30.4872C331.299 35.792 333.176 32.5368 333.176 32.5368C333.176 32.5368 336.606 41.3179 338.22 42.2623C339.734 43.1465 339.411 36.7565 340.884 34.4859C341.55 33.5415 342.539 32.7779 344.072 32.5569C344.072 32.5569 349.904 32.1349 350.045 39.1678C350.186 46.2209 343.124 49.7976 343.124 49.7976L341.933 50.742C341.933 50.742 337.998 69.8315 337.998 82.8927C337.998 95.974 335.375 112.793 346.595 115.847C350.751 116.992 353.738 116.269 355.836 114.943C359.872 115.184 363.524 114.3 365.684 112.974C369.901 110.361 373.109 106.584 373.109 106.584C373.109 106.584 364.957 102.083 365.098 78.8537C365.24 55.6249 362.838 25.0015 354.888 14.6932C346.958 4.38487 338.281 4.68628 338.281 4.68628C327.445 -2.82893 313.502 -0.558288 303.432 7.57984Z" fill="#D1E6FF"/>
<path d="M327.142 14.6731C327.142 14.6731 329.038 11.4781 331.359 9.00656C333.7 6.53498 336.161 5.53027 336.161 5.53027" stroke="white" stroke-width="1.00918" stroke-linecap="round" stroke-linejoin="round"/>
<path d="M317.659 15.1157C317.659 15.1157 307.893 20.1995 304.684 22.9524C301.476 25.7053 300.467 26.7904 300.467 26.7904" stroke="white" stroke-width="1.00918" stroke-linecap="round" stroke-linejoin="round"/>
<path d="M321.592 9.5298C321.592 9.5298 316.85 9.16811 313.804 10.3938C310.736 11.6196 307.145 14.3926 307.145 14.3926" stroke="white" stroke-width="1.00918" stroke-linecap="round" stroke-linejoin="round"/>
<path d="M318.525 4.50507C318.525 4.50507 321.451 4.14337 323.771 4.58544C326.112 5.02751 327.504 5.30883 327.504 5.30883" stroke="white" stroke-width="1.00918" stroke-linecap="round" stroke-linejoin="round"/>
<path d="M337.332 17.3652C337.332 17.3652 339.37 21.2836 339.955 22.4491C340.54 23.5944 341.488 24.8403 341.488 24.8403" stroke="white" stroke-width="1.00918" stroke-linecap="round" stroke-linejoin="round"/>
<path d="M343.889 17.0645C343.889 17.0645 348.409 23.595 349.499 26.2877C350.609 28.9803 351.92 31.0098 351.92 31.0098" stroke="white" stroke-width="1.00918" stroke-linecap="round" stroke-linejoin="round"/>
<path d="M346.877 72.5845C346.877 72.5845 346.716 84.641 346.291 89.4234C345.888 94.2259 346.453 95.9741 346.453 95.9741" stroke="white" stroke-width="1.00918" stroke-linecap="round" stroke-linejoin="round"/>
<path d="M352.123 63.7427L351.982 80.5816" stroke="white" stroke-width="1.00918" stroke-linecap="round" stroke-linejoin="round"/>
<path d="M357.935 71.9619C357.935 71.9619 357.228 77.528 357.814 80.5823C358.399 83.6165 358.701 85.0834 358.701 85.0834" stroke="white" stroke-width="1.00918" stroke-linecap="round" stroke-linejoin="round"/>
<path d="M345.383 13.085C345.383 13.085 347.239 13.949 348.551 15.8781C349.863 17.787 350.266 18.9123 350.266 18.9123" stroke="white" stroke-width="1.00918" stroke-linecap="round" stroke-linejoin="round"/>
<path d="M299.88 77.2463C298.024 74.2724 296.934 69.9321 296.692 66.3955" stroke="white" stroke-width="1.00918" stroke-linecap="round" stroke-linejoin="round"/>
<path d="M304.098 71.5792L303.452 69.188" stroke="white" stroke-width="1.00918" stroke-linecap="round" stroke-linejoin="round"/>
<path d="M380.998 198.595C380.998 198.595 379.021 202.292 377.487 203.96C375.954 205.628 375.005 206.431 375.005 206.431" stroke="white" stroke-width="1.00918" stroke-linecap="round" stroke-linejoin="round"/>
<path d="M381.645 205.768L378.154 210.208" stroke="white" stroke-width="1.00918" stroke-linecap="round" stroke-linejoin="round"/>
<path d="M211.196 118.66C211.276 118.821 209.924 132.264 209.501 136.564L211.196 118.66ZM211.196 118.66C211.135 118.479 205.384 116.671 205.384 110.281C205.384 103.891 210.429 104.695 210.429 104.695L211.196 118.66ZM256.416 93.02C256.739 95.5117 256.618 98.2646 256.456 101.218C255.871 112.109 253.026 124.367 247.114 132.867C242.775 139.116 236.722 139.819 233.836 139.759" stroke="#1B1B1B" stroke-width="1.00918" stroke-linecap="round" stroke-linejoin="round"/>
<path fill-rule="evenodd" clip-rule="evenodd" d="M218.016 415.209C218.016 415.209 217.209 426.1 219.55 435.967C221.87 445.833 231.718 463.837 238.417 463.898C245.136 463.978 252.058 461.727 252.058 455.277C252.058 448.807 244.753 418.103 244.753 418.103L218.016 415.209Z" fill="white" stroke="#1B1B1B" stroke-width="1.00918" stroke-linecap="round" stroke-linejoin="round"/>
<path fill-rule="evenodd" clip-rule="evenodd" d="M264.144 402.873C264.144 402.873 264.084 416.437 265.173 418.104C266.263 419.772 282.083 450.978 292.495 448.728C302.927 446.477 302.625 439.585 300.526 432.05C298.407 424.494 289.145 403.074 289.145 403.074L264.144 402.873Z" fill="white" stroke="#1B1B1B" stroke-width="1.00918" stroke-linecap="round" stroke-linejoin="round"/>
<path fill-rule="evenodd" clip-rule="evenodd" d="M158.75 242.983C158.75 242.983 153.948 280.278 168.658 293.198C183.388 306.119 217.067 318.617 217.067 318.617C217.067 318.617 215.533 413.461 216.481 415.873C217.43 418.264 222.898 423.71 232.947 424.513C243.016 425.297 246.285 418.405 246.285 418.405L263.417 321.732C263.417 321.732 262.61 402.591 263.276 404.319C263.921 406.067 269.834 412.236 278.733 412.095C287.611 411.934 291.768 405.203 291.768 405.203C291.768 405.203 308.9 315.181 307.588 299.809C306.276 284.417 300.162 272.521 280.629 261.49C261.096 250.438 246.084 238.401 246.084 238.401L158.75 242.983Z" fill="#1B1B1B" stroke="#1B1B1B" stroke-width="1.00918" stroke-linecap="round" stroke-linejoin="round"/>
<path fill-rule="evenodd" clip-rule="evenodd" d="M185.447 277.466L227.056 300.252L298.932 282.107L317.94 243.768L323.348 232.234L319.817 229.099L313.985 230.345C299.8 233.218 251.936 243.527 251.936 243.527L248.949 244.27C247.779 247.204 246.346 249.836 244.853 252.388L240.252 262.616L239.244 262.877L185.447 277.466Z" fill="#D1E6FF"/>
<path d="M228.427 297.318L252.278 246.982L320.482 232.755" stroke="white" stroke-width="1.00918" stroke-linecap="round" stroke-linejoin="round"/>
<path fill-rule="evenodd" clip-rule="evenodd" d="M201.913 270.15C204.012 272.139 208.976 276.982 211.316 279.755C214.303 283.312 215.251 285.08 217.269 285.2C219.267 285.301 219.65 284.819 220.054 284.557C220.054 284.557 221.385 285.964 223.141 285.723C224.876 285.482 225.34 284.598 225.34 284.598C225.34 284.598 226.45 284.899 227.5 284.517C228.569 284.135 228.609 283.271 228.609 283.271C228.609 283.271 230.668 282.769 231.273 280.619C231.899 278.489 231.112 275.435 231.112 275.435C231.112 275.435 233.029 272.782 231.535 269.266C230.183 266.071 224.614 257.591 219.408 253.693L201.913 270.15Z" fill="white"/>
<path d="M211.74 273.145C213.718 275.416 219.126 281.946 220.054 284.558" stroke="#1B1B1B" stroke-width="1.00918" stroke-linecap="round" stroke-linejoin="round"/>
<path d="M216.664 270.793C216.664 270.793 218.621 272.682 221.386 276.621C224.171 280.579 224.635 282.991 225.24 284.739" stroke="#1B1B1B" stroke-width="1.00918" stroke-linecap="round" stroke-linejoin="round"/>
<path d="M221.144 268C224.574 271.617 227.803 278.349 228.61 283.272" stroke="#1B1B1B" stroke-width="1.00918" stroke-linecap="round" stroke-linejoin="round"/>
<path d="M224.756 265.368C227.056 267.82 229.7 272.381 231.112 275.435" stroke="#1B1B1B" stroke-width="1.00918" stroke-linecap="round" stroke-linejoin="round"/>
<path d="M201.913 270.15C204.012 272.139 208.976 276.982 211.316 279.755C214.303 283.312 215.251 285.08 217.269 285.2C219.267 285.301 219.65 284.819 220.054 284.557C220.054 284.557 221.385 285.964 223.141 285.723C224.876 285.482 225.34 284.598 225.34 284.598C225.34 284.598 226.45 284.899 227.5 284.517C228.569 284.135 228.609 283.271 228.609 283.271C228.609 283.271 230.668 282.769 231.273 280.619C231.899 278.489 231.112 275.435 231.112 275.435C231.112 275.435 233.029 272.782 231.535 269.266C230.183 266.071 224.614 257.591 219.408 253.693" stroke="#1B1B1B" stroke-width="1.00918" stroke-linecap="round" stroke-linejoin="round"/>
<path fill-rule="evenodd" clip-rule="evenodd" d="M179.818 149.405C179.818 149.405 192.207 138.514 217.855 135.178C243.522 131.843 269.028 137.268 278.794 161.602C288.561 185.916 286.341 216.58 285.191 236.392L258.111 242.2L255.79 204.945C255.79 204.945 251.835 235.629 251.694 239.688C251.553 243.747 246.004 246.66 239.587 249.132C233.17 251.583 221.588 251.664 221.588 251.664L201.611 270.432C201.611 270.432 151.326 252.528 145.938 229.741C140.53 206.954 163.937 158.97 179.818 149.405Z" fill="#1B84FF"/>
<path d="M188.454 187.584L177.376 220.679C177.376 220.679 197.938 234.544 205.081 239.547C212.224 244.551 221.587 251.664 221.587 251.664" stroke="#1B1B1B" stroke-width="1.00918" stroke-linecap="round" stroke-linejoin="round"/>
<path d="M261.844 167.691L257.728 191.021L254.317 215.736" stroke="#1B1B1B" stroke-width="1.00918" stroke-linecap="round" stroke-linejoin="round"/>
<path d="M203.527 138.071C203.527 138.071 209.258 154.73 223.403 155.031C237.549 155.312 237.367 144.24 237.427 141.126C237.508 138.011 236.923 133.812 236.923 133.812" stroke="#1862B8" stroke-width="1.00918" stroke-linecap="round" stroke-linejoin="round"/>
<path fill-rule="evenodd" clip-rule="evenodd" d="M229.538 201.188L220.78 233.198L291.93 218.087L300.97 187.906L229.538 201.188Z" fill="#D1E6FF"/>
<path fill-rule="evenodd" clip-rule="evenodd" d="M236.883 206.11L235.369 211.636L242.028 210.229L243.602 204.683L236.883 206.11Z" fill="white"/>
<path fill-rule="evenodd" clip-rule="evenodd" d="M234.199 217.263L232.686 222.789L239.365 221.362L240.919 215.836L234.199 217.263Z" fill="white"/>
<path d="M250.543 205.97L287.793 198.716" stroke="white" stroke-width="1.00918" stroke-linecap="round" stroke-linejoin="round"/>
<path d="M249.212 216.8L286.442 209.546" stroke="white" stroke-width="1.00918" stroke-linecap="round" stroke-linejoin="round"/>
<path fill-rule="evenodd" clip-rule="evenodd" d="M236.036 80.6026C257.183 82.0494 257.042 90.3282 256.456 101.219C255.871 112.11 253.026 124.368 247.114 132.867C242.775 139.117 236.722 139.82 233.836 139.76C234.684 143.959 233.412 151.696 222.133 151.053C210.873 150.39 206.898 137.208 206.898 137.208C206.898 137.208 208.512 136.846 209.501 136.565C209.924 132.265 211.276 118.822 211.196 118.661C211.135 118.48 205.384 116.672 205.384 110.282C205.384 103.892 210.429 104.696 210.429 104.696C212.467 89.9263 217.048 79.2965 236.036 80.6026Z" fill="white"/>
<path fill-rule="evenodd" clip-rule="evenodd" d="M256.537 94.2063C252.703 94.4273 248.163 94.2465 243.461 93.8848C243.764 94.6283 243.925 95.633 243.38 96.6176C242.271 98.5466 234.219 94.8292 234.219 94.8292C234.219 94.8292 233.453 97.8232 229.417 97.2606C226.269 96.8386 223.948 95.2311 223.061 94.5077L222.879 94.5479C222.879 94.5479 218.843 108.051 218.581 109.699C218.339 111.326 215.272 105.74 210.429 104.695C210.429 104.695 205.384 103.892 205.384 110.282C205.384 116.672 211.135 118.48 211.196 118.661C211.236 118.741 210.953 121.715 210.61 125.312C210.61 125.312 207.543 123.745 204.113 116.631C200.703 109.518 198.14 91.6945 206.151 82.833C214.182 73.9715 230.426 72.9668 234.724 71.721C239.042 70.4952 258.454 65.3511 261.34 68.3451C264.225 71.3593 258.898 75.3982 258.898 75.3982C258.898 75.3982 264.972 75.358 266.142 77.8899C267.312 80.4418 261.198 82.612 261.118 83.4157C261.037 84.2195 265.234 86.3495 265.638 90.1272C266.041 93.9049 256.537 94.2063 256.537 94.2063Z" fill="#1B1B1B" stroke="#1B1B1B" stroke-width="1.00918" stroke-linecap="round" stroke-linejoin="round"/>
<path d="M240.556 112.773C240.637 116.772 240.838 119.505 241.524 123.443C240.253 123.845 238.356 124.066 237.065 123.745" stroke="#1B1B1B" stroke-width="1.00918" stroke-linecap="round" stroke-linejoin="round"/>
<path d="M230.165 115.785C231.039 115.862 231.822 115.101 231.912 114.085C232.002 113.069 231.366 112.183 230.492 112.105C229.617 112.028 228.835 112.79 228.745 113.806C228.654 114.822 229.29 115.708 230.165 115.785Z" fill="#1B1B1B"/>
<path d="M226.633 109.035C227.763 108.453 229.882 107.769 231.839 107.287" stroke="#1B1B1B" stroke-width="1.00918" stroke-linecap="round" stroke-linejoin="round"/>
<path d="M247.86 107.268C248.102 107.308 248.345 107.348 248.546 107.388C249.858 107.629 250.786 107.971 250.786 107.971" stroke="#1B1B1B" stroke-width="1.00918" stroke-linecap="round" stroke-linejoin="round"/>
<path fill-rule="evenodd" clip-rule="evenodd" d="M237.751 129.814C237.751 129.814 233.553 127.885 231.556 127.061C229.558 126.217 228.347 125.534 228.347 125.534C228.347 125.534 227.581 129.995 231.051 131.381C234.502 132.747 237.751 129.814 237.751 129.814Z" fill="white" stroke="#1B1B1B" stroke-width="1.00918" stroke-linecap="round" stroke-linejoin="round"/>
<path d="M208.472 107.629C208.472 107.629 210.732 108.895 212.265 110.965C213.779 113.035 214.364 115.828 214.364 115.828" stroke="#1B1B1B" stroke-width="1.00918" stroke-linecap="round" stroke-linejoin="round"/>
<path d="M209.521 113.9L212.266 110.966" stroke="#1B1B1B" stroke-width="1.00918" stroke-linecap="round" stroke-linejoin="round"/>
<path d="M215.796 126.96C215.796 126.96 217.612 132.767 221.991 136.324C226.349 139.881 233.836 139.76 233.836 139.76" stroke="#1B1B1B" stroke-width="1.00918" stroke-linecap="round" stroke-linejoin="round"/>
<path d="M246.603 115.096C247.477 115.173 248.259 114.411 248.35 113.395C248.44 112.379 247.804 111.493 246.93 111.416C246.055 111.339 245.273 112.1 245.183 113.116C245.092 114.132 245.728 115.019 246.603 115.096Z" fill="#1B1B1B"/>
<path d="M239.283 130.375L237.75 129.813" stroke="#1B1B1B" stroke-width="1.00918" stroke-linecap="round" stroke-linejoin="round"/>
<path d="M194.811 267.759C194.811 267.759 201.51 259.762 207.483 254.678C213.456 249.594 216.422 247.786 216.422 247.786" stroke="#1862B8" stroke-width="1.00918" stroke-linecap="round" stroke-linejoin="round"/>
<path d="M219.065 254.035L213.839 249.594" stroke="#1862B8" stroke-width="1.00918" stroke-linecap="round" stroke-linejoin="round"/>
<path d="M203.993 268.181L197.757 264.383" stroke="#1862B8" stroke-width="1.00918" stroke-linecap="round" stroke-linejoin="round"/>
<path d="M206.777 265.569L200.784 261.108" stroke="#1862B8" stroke-width="1.00918" stroke-linecap="round" stroke-linejoin="round"/>
<path d="M209.944 262.596L203.749 258.115" stroke="#1862B8" stroke-width="1.00918" stroke-linecap="round" stroke-linejoin="round"/>
<path d="M213.032 259.702L207.281 254.859" stroke="#1862B8" stroke-width="1.00918" stroke-linecap="round" stroke-linejoin="round"/>
<path d="M216.158 256.768L210.69 252.026" stroke="#1862B8" stroke-width="1.00918" stroke-linecap="round" stroke-linejoin="round"/>
<path d="M239.204 264.685L226.007 293.5" stroke="#1B1B1B" stroke-width="1.00918" stroke-linecap="round" stroke-linejoin="round"/>
<path d="M160.81 225.019C168.336 221.663 172.11 220.819 177.376 220.679" stroke="#1B1B1B" stroke-width="1.00918" stroke-linecap="round" stroke-linejoin="round"/>
<path d="M261.198 294.484C261.198 294.484 266.242 301.176 265.294 309.073C264.346 316.99 263.276 327.157 262.873 327.077" stroke="white" stroke-width="1.00918" stroke-linecap="round" stroke-linejoin="round"/>
<path d="M256.537 83.9379C252.541 82.4108 246.71 81.1247 239.264 81.386" stroke="white" stroke-width="1.00918" stroke-linecap="round" stroke-linejoin="round"/>
<path d="M253.732 74.7146C249.495 74.6744 246.831 74.7146 241.847 75.6189" stroke="white" stroke-width="1.00918" stroke-linecap="round" stroke-linejoin="round"/>
<path d="M243.582 88.7207C241.242 87.7963 238.215 86.9524 234.562 86.4902" stroke="white" stroke-width="1.00918" stroke-linecap="round" stroke-linejoin="round"/>
<path d="M213.717 102.827C213.838 100.958 214.06 98.828 214.504 96.6981C214.706 95.6933 214.948 94.6886 215.25 93.7241" stroke="white" stroke-width="1.00918" stroke-linecap="round" stroke-linejoin="round"/>
<path d="M210.328 99.2701C210.55 96.4971 211.055 93.1815 212.043 90.1875" stroke="white" stroke-width="1.00918" stroke-linecap="round" stroke-linejoin="round"/>
<path d="M206.575 101.461C206.575 99.8934 206.656 98.1653 206.838 96.397" stroke="white" stroke-width="1.00918" stroke-linecap="round" stroke-linejoin="round"/>
<path d="M107.678 150.832L113.651 138.373M113.651 138.373C111.976 137.389 109.474 135.339 108.243 131.481C106.246 125.312 111.008 122.157 111.008 122.157L113.651 138.373ZM156.914 100.456C158.71 104.977 159.073 110.945 158.952 118.721C158.649 136.725 154.896 151.274 149.973 155.855C145.049 160.437 137.522 158.387 137.522 158.387" stroke="#1B1B1B" stroke-width="1.00918" stroke-linecap="round" stroke-linejoin="round"/>
<path fill-rule="evenodd" clip-rule="evenodd" d="M166.035 194.556C166.035 194.556 162.665 232.292 161.353 245.956C160.042 259.6 161.353 277.444 161.353 277.444C161.353 277.444 169.082 288.054 170.555 292.977C172.008 297.92 168.436 302.562 168.436 302.562C168.436 302.562 167.629 305.837 166.398 306.038C165.147 306.259 163.613 305.757 163.613 305.757C163.613 305.757 162.947 306.982 161.717 307.404C160.506 307.826 159.235 306.641 159.235 306.641C159.235 306.641 157.681 307.565 156.894 306.802C156.107 306.038 154.836 304.109 154.836 304.109C154.836 304.109 151.93 303.265 149.488 301.135C147.047 298.985 141.417 294.544 140.812 284.176C140.206 273.807 137.603 270.974 138.33 253.411C139.056 235.849 140.812 196.063 140.812 196.063L166.035 194.556Z" fill="white"/>
<path d="M148.864 291.168C148.864 291.168 151.87 294.986 153.404 298.442C154.938 301.878 154.837 304.109 154.837 304.109" stroke="#1B1B1B" stroke-width="1.00918" stroke-linecap="round" stroke-linejoin="round"/>
<path d="M156.168 290.927C156.168 290.927 157.601 294.142 158.469 298.643C159.337 303.144 159.558 305.616 159.558 305.616" stroke="#1B1B1B" stroke-width="1.00918" stroke-linecap="round" stroke-linejoin="round"/>
<path d="M161.213 290.747C161.213 290.747 163.251 295.308 163.654 298.724C164.038 302.14 163.796 304.933 163.796 304.933" stroke="#1B1B1B" stroke-width="1.00918" stroke-linecap="round" stroke-linejoin="round"/>
<path d="M165.652 288.917C165.652 288.917 167.085 293.218 167.69 295.87C168.275 298.543 168.315 301.436 168.315 301.436" stroke="#1B1B1B" stroke-width="1.00918" stroke-linecap="round" stroke-linejoin="round"/>
<path d="M166.035 194.556C166.035 194.556 162.665 232.292 161.353 245.956C160.042 259.6 161.353 277.444 161.353 277.444C161.353 277.444 169.082 288.054 170.555 292.977C172.008 297.92 168.436 302.562 168.436 302.562C168.436 302.562 167.629 305.837 166.398 306.038C165.147 306.259 163.613 305.757 163.613 305.757C163.613 305.757 162.947 306.982 161.717 307.404C160.506 307.826 159.235 306.641 159.235 306.641C159.235 306.641 157.681 307.565 156.894 306.802C156.107 306.038 154.836 304.109 154.836 304.109C154.836 304.109 151.93 303.265 149.488 301.135C147.047 298.985 141.417 294.544 140.812 284.176C140.206 273.807 137.603 270.974 138.33 253.411C139.056 235.849 140.812 196.063 140.812 196.063" stroke="#1B1B1B" stroke-width="1.00918" stroke-linecap="round" stroke-linejoin="round"/>
<path fill-rule="evenodd" clip-rule="evenodd" d="M190.653 449.691C190.653 449.691 202.538 452.363 216.078 452.444C229.638 452.524 233.513 457.025 229.497 462.029C225.481 467.032 201.005 474.728 188.171 475.371C175.337 476.034 170.313 459.638 170.313 459.638L190.653 449.691Z" fill="white" stroke="#1B1B1B" stroke-width="1.00918" stroke-linecap="round" stroke-linejoin="round"/>
<path fill-rule="evenodd" clip-rule="evenodd" d="M146.119 474.267C146.119 474.267 147.794 484.414 163.533 488.634C179.273 492.834 209.52 486.524 213.536 480.938C217.552 475.352 216.159 471.433 211.276 469.745C206.393 468.078 176.448 464.963 170.979 462.933C165.511 460.904 146.119 474.267 146.119 474.267Z" fill="white" stroke="#1B1B1B" stroke-width="1.00918" stroke-linecap="round" stroke-linejoin="round"/>
<path fill-rule="evenodd" clip-rule="evenodd" d="M46.0733 255.682C46.0733 255.682 42.1385 287.752 66.0502 342.629C89.9618 397.507 123.479 453.609 133.104 464.42C142.729 475.231 147.451 478.868 147.451 478.868L174.43 463.837L173.34 461.928C173.34 461.928 178.042 460.22 185.286 456.141C192.55 452.082 194.649 450.414 194.649 450.414C194.649 450.414 144.303 291.651 141.095 277.705C137.886 263.78 137.301 260.002 137.301 260.002L46.0733 255.682Z" fill="#1B1B1B" stroke="#1B1B1B" stroke-width="0.403674" stroke-linecap="round" stroke-linejoin="round"/>
<path fill-rule="evenodd" clip-rule="evenodd" d="M83.1016 149.706C83.1016 149.706 112.542 151.454 144.021 146.089C162.989 148.701 169.123 159.07 171.08 170.724C173.038 182.379 171 200.222 171 200.222C171 200.222 164.583 203.196 157.944 204.583C151.326 205.969 147.391 206.472 147.391 206.472L141.115 261.63C141.115 261.63 140.974 269.045 124.508 271.496C108.022 273.968 84.2719 274.691 66.3331 270.351C48.4145 265.991 41.8564 262.072 43.4505 255.682C45.0446 249.292 58.4634 201.91 58.4634 201.91L38.6076 194.194L34.4307 192.406L57.0106 161.903C57.0106 161.903 68.9563 149.123 83.1016 149.706Z" fill="#D1E6FF"/>
<path fill-rule="evenodd" clip-rule="evenodd" d="M114.358 213.364C114.358 213.364 115.004 210.069 117.425 209.345C119.847 208.642 139.218 205.166 139.218 205.166C140.792 204.744 142.79 206.01 143.657 207.236C144.081 207.939 144.202 208.321 144.222 209.165C144.323 212.641 139.097 254.638 139.097 254.638C139.097 254.638 138.855 256.687 136.897 257.591C135.263 258.335 119.443 260.686 114.681 261.389C114.58 261.409 114.479 261.409 114.358 261.45L113.208 261.61C112.845 261.63 112.542 261.61 112.28 261.55C112.28 261.55 108.506 261.289 108.748 258.255C108.647 257.491 108.789 256.788 108.789 256.788L114.358 213.364Z" fill="#1B84FF" stroke="#1B1B1B" stroke-width="1.00918" stroke-linecap="round" stroke-linejoin="round"/>
<path fill-rule="evenodd" clip-rule="evenodd" d="M41.3916 195.28L33.6632 210.451C33.6632 210.451 23.7555 228.013 40.6652 235.408C57.5749 242.802 98.0936 259.079 98.0936 259.079C98.0936 259.079 109.817 261.128 120.25 259.661C130.662 258.215 132.095 253.452 132.095 253.452C132.095 253.452 133.911 252.709 134.092 251.141C134.274 249.574 133.326 248.409 133.326 248.409C134.516 246.861 134.577 244.169 132.518 243.807C131.489 243.626 132.014 240.753 127.938 240.612C123.862 240.471 120.31 241.557 117.183 241.516C114.055 241.476 110.826 240.914 110.826 240.914L112.198 230.304C112.198 230.304 100.132 242.139 98.7393 241.778C97.3672 241.416 60.9447 217.665 60.9447 217.665L68.9758 205.99L41.3916 195.28Z" fill="white"/>
<path d="M113.652 246.438C115.428 246.539 118.051 246.559 121.38 246.137C127.797 245.333 131.914 243.666 131.914 243.666" stroke="#1B1B1B" stroke-width="1.00918" stroke-linecap="round" stroke-linejoin="round"/>
<path d="M113.732 251.523C119.806 251.684 130.5 250.458 133.446 248.248" stroke="#1B1B1B" stroke-width="1.00918" stroke-linecap="round" stroke-linejoin="round"/>
<path d="M113.551 255.783C120.513 256.265 125.921 255.14 132.216 253.291" stroke="#1B1B1B" stroke-width="1.00918" stroke-linecap="round" stroke-linejoin="round"/>
<path d="M87.4388 185.654L73.6769 207.095L58.4219 202.011" stroke="#1B1B1B" stroke-width="1.00918" stroke-linecap="round" stroke-linejoin="round"/>
<path d="M150.739 186.036L147.995 202.754" stroke="#1B1B1B" stroke-width="1.00918" stroke-linecap="round" stroke-linejoin="round"/>
<path d="M103.664 149.866C100.879 169.317 112.26 176.813 123.096 176.632C139.098 176.37 144.586 162.365 141.277 148.52" stroke="#1B84FF" stroke-width="1.00918" stroke-linecap="round" stroke-linejoin="round"/>
<path fill-rule="evenodd" clip-rule="evenodd" d="M139.743 89.3032C157.036 92.3173 159.417 100.697 158.953 118.721C158.468 136.725 154.897 151.274 149.973 155.855C145.05 160.436 137.523 158.387 137.523 158.387C138.411 167.61 128.483 173.096 120.008 171.508C119.988 171.508 119.967 171.488 119.927 171.488C119.826 171.468 119.725 171.448 119.624 171.428C119.544 171.408 119.483 171.388 119.402 171.388C104.914 168.133 107.679 150.831 107.679 150.831L113.652 138.373C111.977 137.388 109.475 135.339 108.244 131.481C106.246 125.312 111.008 122.157 111.008 122.157C99.6879 101.882 119.261 85.7667 139.743 89.3032Z" fill="white"/>
<path d="M112.098 125.09C112.098 125.09 114.923 125.13 116.234 128.847C117.526 132.565 114.721 135.418 114.721 135.418" stroke="#1B1B1B" stroke-width="1.00918" stroke-linecap="round" stroke-linejoin="round"/>
<path d="M112.299 131.259L116.234 128.848" stroke="#1B1B1B" stroke-width="1.00918" stroke-linecap="round" stroke-linejoin="round"/>
<path d="M133.003 127.903C133.003 127.903 133.366 124.306 136.494 124.025C139.642 123.744 139.601 126.838 139.601 126.838" stroke="#1B1B1B" stroke-width="1.00918" stroke-linecap="round" stroke-linejoin="round"/>
<path d="M149.084 126.518C149.084 126.518 149.448 122.921 152.575 122.64C155.703 122.379 155.663 125.453 155.663 125.453" stroke="#1B1B1B" stroke-width="1.00918" stroke-linecap="round" stroke-linejoin="round"/>
<path d="M145.454 124.105C145.454 124.105 145.998 129.37 147.633 133.047C149.267 136.704 145.494 137.147 145.494 137.147" stroke="#1B1B1B" stroke-width="1.00918" stroke-linecap="round" stroke-linejoin="round"/>
<path fill-rule="evenodd" clip-rule="evenodd" d="M146.038 143.919C145.15 143.718 144.121 143.417 143.031 142.955C140.227 141.769 137.2 139.398 137.2 139.398C137.2 139.398 135.182 144.381 140.267 147.255C140.933 147.637 141.558 147.858 142.144 147.978L146.038 143.919Z" stroke="#1B1B1B" stroke-width="1.00918" stroke-linecap="round" stroke-linejoin="round"/>
<path d="M137.523 158.387C132.983 157.141 128.12 155.172 123.357 149.686" stroke="#1B1B1B" stroke-width="1.00918" stroke-linecap="round" stroke-linejoin="round"/>
<path fill-rule="evenodd" clip-rule="evenodd" d="M157.641 102.263C152.596 101.158 135.202 97.8426 127.918 102.746C119.342 108.513 122.046 118.72 122.752 121.554C123.479 124.407 121.34 126.135 120.533 127.481C120.533 127.481 117.445 119.665 111.008 122.157C111.008 122.157 108.425 123.865 107.86 127.22V127.24V127.26C107.84 127.381 107.82 127.502 107.8 127.642V127.662C107.78 127.843 107.759 128.044 107.759 128.245C107.759 128.426 107.739 128.607 107.759 128.808V128.828C107.759 129.109 107.78 129.411 107.84 129.732V129.752C107.86 129.873 107.881 130.013 107.901 130.154V130.174V130.194V130.214L107.921 130.234V130.254V130.275V130.295V130.315L107.941 130.335V130.355V130.375V130.395V130.415L107.961 130.435V130.455V130.476V130.496L107.981 130.516V130.536V130.556V130.576V130.596L108.002 130.616V130.636V130.656V130.676L108.022 130.697V130.717V130.737V130.757L108.042 130.777V130.797V130.817V130.837L108.062 130.857V130.877V130.897L108.082 130.918V130.938V130.958V130.978L108.102 130.998V131.018V131.038V131.058V131.078L108.123 131.098V131.119V131.139L108.143 131.159V131.179V131.199L108.163 131.219V131.239V131.259L108.183 131.279V131.299V131.319L108.203 131.34V131.36V131.38L108.224 131.4V131.42V131.44V131.46L108.244 131.48L108.284 131.621V131.661L108.304 131.701L108.345 131.782V131.822L108.365 131.842L108.385 131.922L108.405 132.003H108.425L108.466 132.143L108.486 132.184L108.506 132.224L108.546 132.344V132.364L108.607 132.505L108.627 132.525L108.688 132.666V132.686V132.706L108.728 132.766L108.748 132.847L108.768 132.867L108.809 132.967L108.829 133.007L108.849 133.048L108.889 133.108L108.91 133.148V133.168L108.95 133.249L108.97 133.309L108.99 133.329L109.031 133.429L109.051 133.47L109.071 133.49L109.111 133.55L109.132 133.61V133.63L109.212 133.751L109.232 133.811L109.273 133.871L109.293 133.912L109.313 133.932L109.333 133.992L109.374 134.052L109.414 134.113L109.434 134.173L109.454 134.193L109.475 134.233L109.515 134.273L109.535 134.313L109.555 134.334L109.576 134.394L109.616 134.454L109.656 134.514L109.697 134.575V134.595L109.717 134.615L109.757 134.675L109.797 134.715V134.735L109.838 134.776L109.878 134.836V134.856L109.898 134.896L109.939 134.936L109.959 134.977L109.979 134.997L110.019 135.057L110.06 135.097L110.1 135.157L110.141 135.198V135.218L110.161 135.258L110.201 135.298L110.221 135.338L110.241 135.358L110.282 135.399L110.322 135.459C111.432 136.886 112.683 137.81 113.652 138.373L110.504 144.943C109.071 143.898 106.65 141.909 106.246 140.101C105.681 137.488 106.468 135.157 106.468 135.157C106.468 135.157 99.0221 128.828 101.403 122.659C100.414 122.518 99.0423 122.016 98.9616 120.107C98.8405 117.093 101.383 114.842 101.383 114.842C101.383 114.842 96.4594 113.657 98.0535 104.333C99.6275 95.0094 107.053 97.0188 107.739 93.0201C108.405 89.0414 111.896 83.0333 119.947 84.3796C127.999 85.7259 131.389 84.7413 133.407 82.0085C135.424 79.2757 141.539 77.4672 144.747 80.2603C147.975 83.0735 151.426 86.7909 154.433 86.7909C157.459 86.7909 162.968 87.5745 163.917 95.0898C164.865 102.585 157.641 102.263 157.641 102.263Z" fill="#1B1B1B" stroke="#1B1B1B" stroke-width="1.00918" stroke-linecap="round" stroke-linejoin="round"/>
<path d="M131.49 119.323C131.49 119.323 132.136 118.298 134.719 117.394C137.281 116.49 138.835 116.791 138.835 116.791" stroke="#1B1B1B" stroke-width="1.00918" stroke-linecap="round" stroke-linejoin="round"/>
<path d="M149.69 116.169C149.69 116.169 152.132 115.686 153.806 116.128C155.481 116.55 156.107 117.153 156.107 117.153" stroke="#1B1B1B" stroke-width="1.00918" stroke-linecap="round" stroke-linejoin="round"/>
<path d="M134.052 162.023L135.505 157.944" stroke="#1B1B1B" stroke-width="1.00918" stroke-linecap="round" stroke-linejoin="round"/>
<path d="M52.8936 212.961L61.0457 217.483" stroke="#1B1B1B" stroke-width="1.00918" stroke-linecap="round" stroke-linejoin="round"/>
<path d="M41.5127 195.099L33.7843 210.27C33.7843 210.27 23.8766 227.832 40.7863 235.247C57.696 242.642 98.1945 258.918 98.1945 258.918C98.1945 258.918 109.939 260.948 120.371 259.501C130.783 258.054 132.216 253.292 132.216 253.292C132.216 253.292 134.032 252.528 134.213 250.961C134.395 249.414 133.447 248.248 133.447 248.248C134.637 246.681 134.698 244.008 132.64 243.626C131.61 243.446 132.135 240.592 128.059 240.452C123.963 240.291 120.431 241.376 117.304 241.356C114.176 241.316 110.947 240.733 110.947 240.733L112.118 230.967C112.118 230.967 100.253 241.959 98.8604 241.597C97.4883 241.235 61.0456 217.484 61.0456 217.484L69.0969 205.809" stroke="#1B1B1B" stroke-width="1.00918" stroke-linecap="round" stroke-linejoin="round"/>
<path d="M117.242 279.936L109.958 293.881C109.958 293.881 139.116 389.971 149.609 410.869C160.102 431.787 170.454 456.744 170.454 456.744" stroke="white" stroke-width="1.00918" stroke-linecap="round" stroke-linejoin="round"/>
<path d="M139.843 207.456L119.22 211.656C119.22 211.656 117.344 211.917 116.88 214.831C116.395 217.724 115.427 225.882 115.427 225.882L114.075 238.301" stroke="#1862B8" stroke-width="1.00918" stroke-linecap="round" stroke-linejoin="round"/>
<path d="M125.437 96.0745C125.437 96.0745 127.333 93.2412 130.824 92.5178C134.335 91.7944 136.595 93.4623 136.595 93.4623" stroke="white" stroke-width="1.00918" stroke-linecap="round" stroke-linejoin="round"/>
<path d="M116.496 103.027C115.043 104.956 114.498 106.925 114.498 109.095" stroke="white" stroke-width="1.00918" stroke-linecap="round" stroke-linejoin="round"/>
<path d="M107.456 108.794C105.943 111.667 106.205 114.862 107.456 116.992" stroke="white" stroke-width="1.00918" stroke-linecap="round" stroke-linejoin="round"/>
<path d="M142.668 87.3938C145.251 87.0522 148.479 89.0013 148.278 91.8346" stroke="white" stroke-width="1.00918" stroke-linecap="round" stroke-linejoin="round"/>
<path d="M120.572 219.959C121.35 220.881 122.842 220.806 123.903 219.791C124.964 218.776 125.194 217.206 124.415 216.284C123.637 215.362 122.146 215.438 121.085 216.453C120.023 217.468 119.794 219.038 120.572 219.959Z" fill="#1B1B1B"/>
<path d="M59.1094 274.671C59.1094 274.671 61.0667 276.921 63.4881 278.67C65.8894 280.418 67.2616 281.423 67.2616 281.423" stroke="white" stroke-width="1.00918" stroke-linecap="round" stroke-linejoin="round"/>
<path d="M61.4487 284.577L66.1302 287.048" stroke="white" stroke-width="1.00918" stroke-linecap="round" stroke-linejoin="round"/>
<path fill-rule="evenodd" clip-rule="evenodd" d="M125.518 55.1832C131.874 55.1631 146.14 54.1584 152.133 46.0404C159.922 35.4508 151.911 23.8364 135.365 23.3943C96.864 22.3896 96.6824 51.8074 117.89 54.8617L121.361 62.4573L125.518 55.1832Z" fill="white" stroke="#1B1B1B" stroke-width="1.00918" stroke-linecap="round" stroke-linejoin="round"/>
<path fill-rule="evenodd" clip-rule="evenodd" d="M119.303 39.168C120.413 39.168 121.301 40.0923 121.301 41.2176C121.301 42.3428 120.413 43.2471 119.303 43.2471C118.193 43.2471 117.285 42.3428 117.285 41.2176C117.285 40.0923 118.193 39.168 119.303 39.168ZM140.571 36.0132C141.681 36.0132 142.569 36.9375 142.569 38.0628C142.569 39.1881 141.681 40.1124 140.571 40.1124C139.461 40.1124 138.553 39.1881 138.553 38.0628C138.553 36.9375 139.461 36.0132 140.571 36.0132ZM129.735 37.7815C130.845 37.7815 131.733 38.6857 131.733 39.8311C131.733 40.9563 130.845 41.8606 129.735 41.8606C128.626 41.8606 127.717 40.9563 127.717 39.8311C127.717 38.6857 128.626 37.7815 129.735 37.7815Z" fill="#1B1B1B"/>
<path fill-rule="evenodd" clip-rule="evenodd" d="M432.878 56.2077C440.688 45.6181 432.656 34.0037 416.11 33.5616C390.604 32.8784 381.927 45.5779 385.136 55.1226L380.797 62.9593L389.817 61.4924C392.077 63.2406 395.064 64.5066 398.635 65.029C409.592 65.4912 425.816 65.8127 432.878 56.2077Z" fill="white" stroke="#1B1B1B" stroke-width="1.00918" stroke-linecap="round" stroke-linejoin="round"/>
<path fill-rule="evenodd" clip-rule="evenodd" d="M400.047 49.335C401.157 49.335 402.065 50.2392 402.065 51.3645C402.065 52.5098 401.157 53.4141 400.047 53.4141C398.938 53.4141 398.05 52.5098 398.05 51.3645C398.05 50.2392 398.938 49.335 400.047 49.335ZM421.316 46.1802C422.426 46.1802 423.334 47.1045 423.334 48.2298C423.334 49.3551 422.426 50.2593 421.316 50.2593C420.206 50.2593 419.318 49.3551 419.318 48.2298C419.318 47.1045 420.206 46.1802 421.316 46.1802ZM410.48 47.9485C411.59 47.9485 412.498 48.8527 412.498 49.978C412.498 51.1032 411.59 52.0276 410.48 52.0276C409.37 52.0276 408.462 51.1032 408.462 49.978C408.462 48.8527 409.37 47.9485 410.48 47.9485Z" fill="#1B1B1B"/>
</svg>