<svg width="134" height="28" viewBox="0 0 134 28" fill="none" xmlns="http://www.w3.org/2000/svg">
<path d="M21.4011 12.2886C21.0025 12.6889 20.6973 13.1722 20.5072 13.7037C20.317 14.2353 20.2466 14.8022 20.301 15.3641L20.2821 15.3452C20.338 16.0066 20.2486 16.6721 20.0203 17.2955C19.792 17.9188 19.4302 18.4848 18.9602 18.9542C18.4901 19.4234 17.9231 19.7848 17.2987 20.0126C16.6745 20.2406 16.0078 20.3298 15.3454 20.274L15.3644 20.2929C14.572 20.2192 13.7762 20.3913 13.0853 20.7858C12.3946 21.1803 11.8424 21.7779 11.5043 22.4972C11.1662 23.2164 11.0584 24.0222 11.1957 24.8049C11.3332 25.5875 11.709 26.3087 12.2719 26.8703C12.8349 27.4318 13.5576 27.8064 14.3416 27.9428C15.1256 28.0793 15.9326 27.9709 16.6527 27.6327C17.3728 27.2944 17.9708 26.7427 18.3653 26.0526C18.7598 25.3626 18.9315 24.5679 18.857 23.7768L18.877 23.7957C18.8211 23.1344 18.9104 22.4688 19.1387 21.8454C19.367 21.2221 19.7289 20.6561 20.1989 20.1867C20.669 19.7174 21.236 19.3561 21.8603 19.1283C22.4847 18.9003 23.1512 18.8111 23.8137 18.8669L23.7937 18.848C24.4409 18.9061 25.0924 18.8001 25.6878 18.54C26.2831 18.2798 26.803 17.8737 27.1993 17.3595C27.5956 16.8453 27.8556 16.2395 27.9549 15.5983C28.0542 14.9571 27.9899 14.3012 27.7678 13.6914C27.5456 13.0816 27.1729 12.5377 26.6842 12.1101C26.1955 11.6824 25.6065 11.3848 24.9719 11.245C24.3373 11.1051 23.6776 11.1273 23.0539 11.3097C22.4303 11.4922 21.8629 11.8289 21.4043 12.2886H21.4011Z" fill="#1B84FF"/>
<path d="M13.6428 17.8167L13.6228 17.7978C14.1858 17.8544 14.7543 17.7854 15.2874 17.5958C15.8204 17.4062 16.3046 17.1007 16.7049 16.7014C17.1051 16.3021 17.4115 15.8189 17.6018 15.2868C17.7922 14.7548 17.8617 14.1872 17.8054 13.6251L17.8254 13.644C17.7694 12.9826 17.8588 12.3171 18.0871 11.6937C18.3154 11.0704 18.6773 10.5043 19.1473 10.0349C19.6174 9.56569 20.1843 9.20438 20.8086 8.97652C21.433 8.74852 22.0996 8.65935 22.7621 8.71518L22.7421 8.69627C23.5345 8.77062 24.3306 8.599 25.0217 8.20497C25.713 7.81094 26.2656 7.21362 26.6042 6.49449C26.9429 5.77538 27.0511 4.96946 26.9142 4.18666C26.7772 3.40386 26.4018 2.68231 25.8389 2.1204C25.2761 1.5585 24.5534 1.1836 23.7694 1.04687C22.9853 0.910127 22.1782 1.01818 21.4578 1.35631C20.7375 1.69443 20.1393 2.24616 19.7446 2.93624C19.3499 3.62631 19.1781 4.42115 19.2525 5.21231L19.2336 5.19236C19.2897 5.85376 19.2005 6.51941 18.9723 7.14282C18.744 7.76624 18.3822 8.3324 17.9122 8.8018C17.442 9.27105 16.875 9.63237 16.2506 9.86022C15.6261 10.0881 14.9594 10.1771 14.2969 10.1211L14.3159 10.1411C13.7529 10.0845 13.1843 10.1535 12.6513 10.3431C12.1183 10.5327 11.6341 10.8382 11.2338 11.2375C10.8335 11.6369 10.5271 12.1201 10.3368 12.6521C10.1465 13.1842 10.077 13.7517 10.1333 14.3139L10.1143 14.295C10.1701 14.9563 10.0806 15.6218 9.85227 16.2451C9.62384 16.8683 9.26205 17.4343 8.79205 17.9036C8.322 18.3728 7.7551 18.734 7.13085 18.9621C6.50661 19.1901 5.84005 19.2794 5.17768 19.2238L5.19661 19.2427C4.40418 19.1683 3.60808 19.3399 2.91689 19.734C2.22572 20.128 1.6731 20.7253 1.33445 21.4444C0.995778 22.1636 0.887538 22.9695 1.0245 23.7523C1.16146 24.5351 1.53696 25.2566 2.09975 25.8185C2.66256 26.3805 3.38527 26.7553 4.16932 26.892C4.95337 27.0288 5.76058 26.9207 6.48085 26.5826C7.20112 26.2445 7.7994 25.6928 8.19406 25.0027C8.58876 24.3126 8.7606 23.5178 8.68614 22.7266L8.70613 22.7455C8.65018 22.0841 8.73957 21.4186 8.96789 20.7952C9.19611 20.1719 9.558 19.6059 10.028 19.1365C10.4981 18.6672 11.0651 18.3059 11.6894 18.0781C12.3138 17.8501 12.9803 17.7609 13.6428 17.8167Z" fill="#1B84FF"/>
<path d="M6.59403 15.7093C6.99265 15.309 7.29783 14.8258 7.48781 14.2942C7.67779 13.7626 7.74787 13.1955 7.69306 12.6338L7.71303 12.6527C7.65708 11.9912 7.74643 11.3254 7.97487 10.7019C8.20331 10.0784 8.56534 9.51219 9.03565 9.04283C9.50597 8.57349 10.0732 8.2123 10.6978 7.9845C11.3224 7.75668 11.9892 7.66775 12.6518 7.7239L12.6318 7.705C13.424 7.7791 14.2198 7.60743 14.9106 7.21343C15.6015 6.81943 16.1537 6.22225 16.4923 5.50336C16.8307 4.78445 16.9388 3.97882 16.8019 3.19632C16.665 2.41381 16.2895 1.69254 15.727 1.13084C15.1644 0.569142 14.4419 0.194369 13.6582 0.057636C12.8745 -0.0791079 12.0675 0.028855 11.3475 0.366772C10.6274 0.704689 10.0293 1.25613 9.6347 1.94588C9.24 2.63564 9.06805 3.43015 9.1423 4.22104L9.12337 4.20214C9.17932 4.8635 9.08992 5.52907 8.8616 6.1524C8.63328 6.77574 8.27151 7.34181 7.80145 7.81113C7.33139 8.28044 6.7644 8.64168 6.14007 8.86958C5.51574 9.09754 4.84911 9.18679 4.1867 9.13093L4.20563 9.14983C3.55838 9.09187 2.90695 9.19802 2.31171 9.45832C1.71647 9.71862 1.19667 10.1248 0.800488 10.6391C0.404303 11.1533 0.144555 11.7591 0.0452954 12.4003C-0.0539532 13.0415 0.0105053 13.6973 0.232697 14.307C0.454889 14.9167 0.827642 15.4605 1.3164 15.8881C1.80515 16.3158 2.3941 16.6133 3.02868 16.7531C3.66324 16.8929 4.32289 16.8705 4.94652 16.6881C5.57013 16.5056 6.13752 16.169 6.59613 15.7093H6.59403Z" fill="#1B84FF"/>
<path d="M36.99 20.5V10.672H39.51V13.03L39.33 12.688C39.546 11.86 39.9 11.302 40.392 11.014C40.896 10.714 41.49 10.564 42.174 10.564H42.75V12.904H41.904C41.244 12.904 40.71 13.108 40.302 13.516C39.894 13.912 39.69 14.476 39.69 15.208V20.5H36.99ZM47.8214 20.716C47.0294 20.716 46.3514 20.548 45.7874 20.212C45.2354 19.864 44.8154 19.384 44.5274 18.772C44.2394 18.16 44.0954 17.446 44.0954 16.63V10.672H46.7954V16.414C46.7954 16.786 46.8674 17.116 47.0114 17.404C47.1674 17.68 47.3834 17.896 47.6594 18.052C47.9354 18.208 48.2474 18.286 48.5954 18.286C48.9554 18.286 49.2674 18.208 49.5314 18.052C49.8074 17.896 50.0174 17.68 50.1614 17.404C50.3174 17.116 50.3954 16.786 50.3954 16.414V10.672H53.0954V20.5H50.5754V18.556L50.7194 18.988C50.4914 19.576 50.1194 20.014 49.6034 20.302C49.0994 20.578 48.5054 20.716 47.8214 20.716ZM58.4707 20.716C57.7627 20.716 57.1507 20.602 56.6347 20.374C56.1187 20.146 55.7227 19.822 55.4467 19.402C55.1707 18.97 55.0327 18.46 55.0327 17.872C55.0327 17.32 55.1587 16.834 55.4107 16.414C55.6627 15.982 56.0467 15.622 56.5627 15.334C57.0907 15.046 57.7447 14.842 58.5247 14.722L61.5307 14.236V16.216L59.0107 16.666C58.6267 16.738 58.3327 16.864 58.1287 17.044C57.9247 17.212 57.8227 17.458 57.8227 17.782C57.8227 18.082 57.9367 18.316 58.1647 18.484C58.3927 18.652 58.6747 18.736 59.0107 18.736C59.4547 18.736 59.8447 18.64 60.1807 18.448C60.5167 18.256 60.7747 17.998 60.9547 17.674C61.1467 17.338 61.2427 16.972 61.2427 16.576V14.02C61.2427 13.648 61.0927 13.336 60.7927 13.084C60.5047 12.832 60.1087 12.706 59.6047 12.706C59.1247 12.706 58.6987 12.838 58.3267 13.102C57.9667 13.366 57.7027 13.714 57.5347 14.146L55.3747 13.12C55.5667 12.568 55.8727 12.094 56.2927 11.698C56.7127 11.302 57.2167 10.996 57.8047 10.78C58.3927 10.564 59.0347 10.456 59.7307 10.456C60.5587 10.456 61.2907 10.606 61.9267 10.906C62.5627 11.206 63.0547 11.626 63.4027 12.166C63.7627 12.694 63.9427 13.312 63.9427 14.02V20.5H61.4227V18.916L62.0347 18.808C61.7467 19.24 61.4287 19.6 61.0807 19.888C60.7327 20.164 60.3427 20.368 59.9107 20.5C59.4787 20.644 58.9987 20.716 58.4707 20.716ZM66.2829 20.5V10.672H68.8029V12.616L68.6589 12.184C68.8869 11.596 69.2529 11.164 69.7569 10.888C70.2729 10.6 70.8729 10.456 71.5569 10.456C72.3009 10.456 72.9489 10.612 73.5009 10.924C74.0649 11.236 74.5029 11.674 74.8149 12.238C75.1269 12.79 75.2829 13.438 75.2829 14.182V20.5H72.5829V14.758C72.5829 14.374 72.5049 14.044 72.3489 13.768C72.2049 13.492 71.9949 13.276 71.7189 13.12C71.4549 12.964 71.1429 12.886 70.7829 12.886C70.4349 12.886 70.1229 12.964 69.8469 13.12C69.5709 13.276 69.3549 13.492 69.1989 13.768C69.0549 14.044 68.9829 14.374 68.9829 14.758V20.5H66.2829ZM82.2423 24.46C81.4863 24.46 80.7843 24.334 80.1363 24.082C79.4883 23.83 78.9303 23.476 78.4623 23.02C78.0063 22.576 77.6763 22.048 77.4723 21.436L79.9743 20.554C80.1063 21.01 80.3763 21.37 80.7843 21.634C81.1923 21.898 81.6783 22.03 82.2423 22.03C82.6863 22.03 83.0703 21.946 83.3943 21.778C83.7183 21.622 83.9643 21.388 84.1323 21.076C84.3123 20.764 84.4023 20.398 84.4023 19.978V17.728L84.9243 18.376C84.5883 18.928 84.1563 19.342 83.6283 19.618C83.1003 19.882 82.4823 20.014 81.7743 20.014C80.8623 20.014 80.0463 19.81 79.3263 19.402C78.6063 18.982 78.0423 18.412 77.6343 17.692C77.2263 16.96 77.0223 16.132 77.0223 15.208C77.0223 14.284 77.2263 13.468 77.6343 12.76C78.0423 12.04 78.6003 11.476 79.3083 11.068C80.0163 10.66 80.8203 10.456 81.7203 10.456C82.4283 10.456 83.0463 10.6 83.5743 10.888C84.1023 11.164 84.5523 11.59 84.9243 12.166L84.5823 12.814V10.672H87.1023V19.978C87.1023 20.842 86.8923 21.61 86.4723 22.282C86.0523 22.966 85.4763 23.5 84.7443 23.884C84.0243 24.268 83.1903 24.46 82.2423 24.46ZM82.1523 17.566C82.6083 17.566 83.0043 17.47 83.3403 17.278C83.6763 17.086 83.9343 16.816 84.1143 16.468C84.3063 16.12 84.4023 15.712 84.4023 15.244C84.4023 14.776 84.3063 14.368 84.1143 14.02C83.9223 13.66 83.6583 13.384 83.3223 13.192C82.9863 12.988 82.5963 12.886 82.1523 12.886C81.6963 12.886 81.2883 12.988 80.9283 13.192C80.5803 13.384 80.3043 13.66 80.1003 14.02C79.9083 14.368 79.8123 14.776 79.8123 15.244C79.8123 15.7 79.9083 16.102 80.1003 16.45C80.3043 16.798 80.5803 17.074 80.9283 17.278C81.2883 17.47 81.6963 17.566 82.1523 17.566ZM94.9582 20.716C94.2862 20.716 93.6622 20.596 93.0862 20.356C92.5222 20.104 92.0662 19.738 91.7182 19.258L91.9702 18.7V20.5H89.4502V6.874H92.1502V12.544L91.7362 12.004C92.0602 11.512 92.4982 11.134 93.0502 10.87C93.6142 10.594 94.2562 10.456 94.9762 10.456C95.9122 10.456 96.7582 10.684 97.5142 11.14C98.2702 11.596 98.8702 12.214 99.3142 12.994C99.7582 13.762 99.9802 14.626 99.9802 15.586C99.9802 16.534 99.7582 17.398 99.3142 18.178C98.8822 18.958 98.2882 19.576 97.5322 20.032C96.7762 20.488 95.9182 20.716 94.9582 20.716ZM94.6342 18.286C95.1382 18.286 95.5822 18.172 95.9662 17.944C96.3502 17.716 96.6502 17.398 96.8662 16.99C97.0822 16.582 97.1902 16.114 97.1902 15.586C97.1902 15.058 97.0822 14.596 96.8662 14.2C96.6502 13.792 96.3502 13.474 95.9662 13.246C95.5822 13.006 95.1382 12.886 94.6342 12.886C94.1542 12.886 93.7222 13 93.3382 13.228C92.9662 13.456 92.6722 13.774 92.4562 14.182C92.2522 14.59 92.1502 15.058 92.1502 15.586C92.1502 16.114 92.2522 16.582 92.4562 16.99C92.6722 17.398 92.9662 17.716 93.3382 17.944C93.7222 18.172 94.1542 18.286 94.6342 18.286ZM104.963 20.716C104.255 20.716 103.643 20.602 103.127 20.374C102.611 20.146 102.215 19.822 101.939 19.402C101.663 18.97 101.525 18.46 101.525 17.872C101.525 17.32 101.651 16.834 101.903 16.414C102.155 15.982 102.539 15.622 103.055 15.334C103.583 15.046 104.237 14.842 105.017 14.722L108.023 14.236V16.216L105.503 16.666C105.119 16.738 104.825 16.864 104.621 17.044C104.417 17.212 104.315 17.458 104.315 17.782C104.315 18.082 104.429 18.316 104.657 18.484C104.885 18.652 105.167 18.736 105.503 18.736C105.947 18.736 106.337 18.64 106.673 18.448C107.009 18.256 107.267 17.998 107.447 17.674C107.639 17.338 107.735 16.972 107.735 16.576V14.02C107.735 13.648 107.585 13.336 107.285 13.084C106.997 12.832 106.601 12.706 106.097 12.706C105.617 12.706 105.191 12.838 104.819 13.102C104.459 13.366 104.195 13.714 104.027 14.146L101.867 13.12C102.059 12.568 102.365 12.094 102.785 11.698C103.205 11.302 103.709 10.996 104.297 10.78C104.885 10.564 105.527 10.456 106.223 10.456C107.051 10.456 107.783 10.606 108.419 10.906C109.055 11.206 109.547 11.626 109.895 12.166C110.255 12.694 110.435 13.312 110.435 14.02V20.5H107.915V18.916L108.527 18.808C108.239 19.24 107.921 19.6 107.573 19.888C107.225 20.164 106.835 20.368 106.403 20.5C105.971 20.644 105.491 20.716 104.963 20.716ZM117.6 20.716C116.616 20.716 115.728 20.494 114.936 20.05C114.156 19.594 113.532 18.976 113.064 18.196C112.608 17.416 112.38 16.54 112.38 15.568C112.38 14.596 112.608 13.726 113.064 12.958C113.52 12.178 114.144 11.566 114.936 11.122C115.728 10.678 116.616 10.456 117.6 10.456C118.332 10.456 119.01 10.582 119.634 10.834C120.258 11.086 120.792 11.44 121.236 11.896C121.68 12.34 121.998 12.868 122.19 13.48L119.85 14.488C119.682 13.996 119.394 13.606 118.986 13.318C118.59 13.03 118.128 12.886 117.6 12.886C117.132 12.886 116.712 13 116.34 13.228C115.98 13.456 115.692 13.774 115.476 14.182C115.272 14.59 115.17 15.058 115.17 15.586C115.17 16.114 115.272 16.582 115.476 16.99C115.692 17.398 115.98 17.716 116.34 17.944C116.712 18.172 117.132 18.286 117.6 18.286C118.14 18.286 118.608 18.142 119.004 17.854C119.4 17.566 119.682 17.176 119.85 16.684L122.19 17.71C122.01 18.286 121.698 18.802 121.254 19.258C120.81 19.714 120.276 20.074 119.652 20.338C119.028 20.59 118.344 20.716 117.6 20.716ZM127.182 20.716C126.474 20.716 125.862 20.602 125.346 20.374C124.83 20.146 124.434 19.822 124.158 19.402C123.882 18.97 123.744 18.46 123.744 17.872C123.744 17.32 123.87 16.834 124.122 16.414C124.374 15.982 124.758 15.622 125.274 15.334C125.802 15.046 126.456 14.842 127.236 14.722L130.242 14.236V16.216L127.722 16.666C127.338 16.738 127.044 16.864 126.84 17.044C126.636 17.212 126.534 17.458 126.534 17.782C126.534 18.082 126.648 18.316 126.876 18.484C127.104 18.652 127.386 18.736 127.722 18.736C128.166 18.736 128.556 18.64 128.892 18.448C129.228 18.256 129.486 17.998 129.666 17.674C129.858 17.338 129.954 16.972 129.954 16.576V14.02C129.954 13.648 129.804 13.336 129.504 13.084C129.216 12.832 128.82 12.706 128.316 12.706C127.836 12.706 127.41 12.838 127.038 13.102C126.678 13.366 126.414 13.714 126.246 14.146L124.086 13.12C124.278 12.568 124.584 12.094 125.004 11.698C125.424 11.302 125.928 10.996 126.516 10.78C127.104 10.564 127.746 10.456 128.442 10.456C129.27 10.456 130.002 10.606 130.638 10.906C131.274 11.206 131.766 11.626 132.114 12.166C132.474 12.694 132.654 13.312 132.654 14.02V20.5H130.134V18.916L130.746 18.808C130.458 19.24 130.14 19.6 129.792 19.888C129.444 20.164 129.054 20.368 128.622 20.5C128.19 20.644 127.71 20.716 127.182 20.716Z" fill="#1B84FF"/>
</svg>
