<svg width="27" height="27" viewBox="0 0 27 27" fill="none" xmlns="http://www.w3.org/2000/svg">
<g clip-path="url(#clip0_902_4658)">
<path d="M25.7671 10.8583C25.7615 10.6445 25.7615 10.4251 25.7559 10.2113C25.7502 9.99187 25.6771 9.75557 25.5477 9.56428C24.8163 8.48405 24.0005 7.47697 23.1285 6.56553C20.5011 3.81433 17.3393 1.95207 13.7161 1.02937C13.6149 1.00124 13.508 0.98999 13.4011 0.98999C13.2773 0.98999 13.1592 1.00687 13.041 1.04063C11.6458 1.44571 10.318 1.96332 9.09717 2.56532C5.77219 4.20816 3.11108 6.58241 1.1926 9.62054C1.08008 9.8062 1.01256 9.99187 1.00131 10.1719C0.888792 12.0848 1.02944 13.9696 1.42889 15.7756C2.08714 18.7799 3.45989 21.6437 5.51339 24.2823C5.63716 24.4399 5.80595 24.5637 5.98598 24.6255C8.46706 25.5257 10.965 25.9927 13.4011 26.0096H13.4292L14.0312 25.9758C14.4644 25.9533 14.892 25.9308 15.3252 25.8914C17.1199 25.7283 18.9484 25.2894 20.7599 24.5918C20.9456 24.5186 21.1088 24.3949 21.2213 24.2486C22.594 22.4482 23.618 20.6928 24.3606 18.8925C25.1933 16.8614 25.6658 14.7797 25.7615 12.6981C25.7896 12.0792 25.7784 11.4603 25.7671 10.8583Z" fill="white"/>
<path d="M13.4129 26.9999C10.5774 26.9774 7.8488 26.4204 5.19894 25.464C5.13705 25.4415 5.07517 25.3964 5.03579 25.3458C2.84726 22.5327 1.2776 19.4271 0.512456 15.9332C0.0623736 13.8909 -0.0782772 11.8261 0.0398695 9.74444C0.0454955 9.66567 0.0848778 9.58128 0.129886 9.51376C2.29591 6.07617 5.2327 3.51064 8.86149 1.71589C10.2736 1.01824 11.7364 0.461253 13.2442 0.0224118C13.3454 -0.00571902 13.4692 -0.0113452 13.5705 0.0167857C17.6212 1.052 21.07 3.10555 23.9561 6.12681C24.9463 7.16202 25.8352 8.27601 26.6398 9.4575C26.6904 9.53627 26.7298 9.64317 26.7298 9.73318C26.7354 10.6728 26.7748 11.6067 26.7298 12.5406C26.6229 14.898 26.0828 17.171 25.1882 19.3539C24.3049 21.4975 23.1066 23.461 21.7001 25.3008C21.6607 25.3514 21.5988 25.3908 21.5369 25.419C19.6016 26.1672 17.6043 26.668 15.534 26.8593C14.8307 26.9268 14.1218 26.9549 13.4129 26.9999ZM26.4035 11.2016C26.4035 10.7571 26.4091 10.3183 26.3978 9.87384C26.3922 9.76694 26.3528 9.63754 26.2853 9.55315C25.6552 8.73173 25.0532 7.88217 24.3725 7.10014C21.4582 3.75256 17.8631 1.47396 13.5536 0.359982C13.4692 0.337477 13.3623 0.337477 13.2779 0.365608C11.9389 0.753814 10.6337 1.24892 9.37346 1.84529C5.77842 3.5444 2.83038 6.00303 0.630603 9.33373C0.45057 9.60378 0.354927 9.86821 0.343675 10.2002C0.281789 12.0287 0.416814 13.8403 0.788132 15.6294C1.51952 19.1289 3.06667 22.2402 5.24395 25.0589C5.28896 25.1151 5.35084 25.1601 5.41836 25.1827C5.76717 25.3064 6.12161 25.4302 6.47605 25.5371C9.48035 26.471 12.5409 26.8536 15.6802 26.5161C17.6212 26.3079 19.5003 25.8409 21.3232 25.1433C21.3963 25.1151 21.4694 25.0532 21.5144 24.9914C22.122 24.1024 22.7578 23.236 23.3148 22.3189C25.3851 18.9038 26.4485 15.2018 26.4035 11.2016Z" fill="white"/>
<path d="M25.891 11.4155C25.8798 15.365 24.7489 18.977 22.6504 22.2965C22.1947 23.0223 21.6827 23.7087 21.1876 24.4119C21.1314 24.4907 21.0414 24.5526 20.957 24.5863C19.3311 25.2165 17.6601 25.6497 15.9273 25.8579C14.3239 26.0548 12.7205 26.0604 11.117 25.8747C9.29983 25.6666 7.53888 25.2277 5.82294 24.6145C5.75543 24.592 5.68229 24.5413 5.63728 24.4794C3.60629 21.8689 2.14914 18.9827 1.43464 15.7364C1.02394 13.8685 0.888912 11.9781 0.990181 10.0708C0.995807 9.95267 1.04082 9.81764 1.1027 9.71637C3.23497 6.33504 6.17176 3.88203 9.7893 2.21668C10.9314 1.69345 12.1072 1.26023 13.3168 0.91141C13.3956 0.888905 13.4969 0.888905 13.5756 0.91141C17.3788 1.88474 20.6138 3.81451 23.3087 6.66136C24.1976 7.60093 25.0077 8.61364 25.7335 9.68261C25.7897 9.767 25.8291 9.8739 25.8347 9.97517C25.8629 10.459 25.8741 10.9372 25.891 11.4155ZM21.3902 8.55175C21.4408 8.63052 21.4914 8.70928 21.5533 8.80493C21.8234 8.63614 21.9359 8.81618 22.0372 9.0131C22.0428 9.02435 22.0541 9.02998 22.0541 9.04123C22.0541 9.09186 22.0709 9.15938 22.0484 9.19313C21.919 9.41256 21.9134 9.40693 22.1047 9.6151C22.341 9.28315 22.5773 8.94558 22.8192 8.61927C22.8867 8.52925 22.9205 8.46736 22.8417 8.35484C22.7686 8.25356 22.701 8.24231 22.5885 8.26482C22.2003 8.34921 21.8121 8.42798 21.4183 8.50674C21.4633 8.46173 21.5027 8.41672 21.5477 8.37171C21.4127 8.21418 21.2777 8.0679 21.1426 7.91037C21.4071 7.67969 21.6715 7.44902 21.9359 7.21272C21.8684 7.13958 21.8121 7.07207 21.7502 6.99893C21.4183 7.29149 21.0976 7.5728 20.7657 7.85973C20.9851 8.10728 21.1876 8.33233 21.3902 8.55175ZM10.4926 18.4932C10.5319 18.3638 10.4926 18.285 10.3969 18.2063C10.1944 18.0487 10.0031 17.8799 9.8118 17.7112C9.74992 17.6605 9.69928 17.593 9.62614 17.5142C9.79492 17.4692 9.92995 17.4186 10.0706 17.3961C10.1212 17.3848 10.1944 17.4242 10.2394 17.458C10.4982 17.6661 10.7457 17.8799 11.0045 18.0881C11.0495 18.1219 11.117 18.15 11.1733 18.1444C11.4771 18.1275 11.7809 18.0937 12.0847 18.0712C12.1916 18.0656 12.2985 18.0825 12.4054 18.0937C12.4223 17.8462 12.3829 17.8124 12.1635 17.8124C11.8934 17.8181 11.629 17.8124 11.3365 17.8124C11.3365 17.7562 11.3365 17.6999 11.3365 17.6436C11.3365 17.3905 11.3421 17.1317 11.3421 16.8785C11.3365 16.4959 11.3365 16.4959 11.7078 16.4284C11.7303 16.4228 11.7472 16.4171 11.7697 16.4171C12.9624 16.164 14.1495 16.2033 15.3309 16.4621C15.4322 16.4847 15.4547 16.5297 15.4547 16.6253C15.4547 16.9629 15.466 17.3061 15.4716 17.6436C15.4716 17.683 15.4772 17.7224 15.466 17.7562C15.4547 17.7843 15.421 17.8181 15.3928 17.8181C15.1565 17.8237 14.9202 17.8237 14.6839 17.8181C14.4645 17.8124 14.4251 17.8574 14.487 18.0881C14.5095 18.0881 14.5377 18.0825 14.5602 18.0825C14.8358 18.0881 15.1059 18.0937 15.3816 18.0994C15.5447 18.105 15.7135 18.1613 15.8654 18.0206C16.0848 17.8181 16.3155 17.6324 16.5462 17.4411C16.5912 17.4017 16.6587 17.3511 16.7037 17.3567C16.8668 17.3905 17.0244 17.4467 17.1875 17.4917C17.1932 17.5086 17.1988 17.5255 17.2044 17.548C16.9681 17.7562 16.7318 17.97 16.4843 18.1669C16.3718 18.2569 16.3493 18.3413 16.3886 18.4651C17.9695 17.4524 19.0104 15.3988 18.4421 13.2158C18.1552 12.1131 17.542 11.2298 16.6418 10.5378C15.9723 10.0258 15.224 9.69386 14.3801 9.54758C14.3689 9.7445 14.3633 9.90203 14.5771 9.99205C14.729 10.0539 14.8527 10.1777 14.9934 10.2677C14.9878 10.2902 14.9765 10.3127 14.9709 10.3352C14.8471 10.3127 14.7177 10.2959 14.5996 10.2677C14.4983 10.2396 14.4308 10.2509 14.4308 10.3803C14.4308 10.4196 14.4139 10.4646 14.4195 10.504C14.4364 10.9654 14.4589 11.4267 14.4814 11.8881C14.5489 13.3002 14.6164 14.718 14.6783 16.1302C14.6783 16.1808 14.6783 16.2315 14.6783 16.299C13.84 16.164 13.0243 16.1583 12.1972 16.2765C12.2816 14.2511 12.3829 12.2481 12.4504 10.2565C12.2029 10.1777 12.0341 10.4196 11.7809 10.3071C11.9722 10.1946 12.1297 10.0877 12.2985 9.99768C12.4954 9.89078 12.5404 9.78388 12.4729 9.55321C10.5713 9.84577 8.56282 11.4098 8.26464 13.8854C8.03397 15.8376 9.08042 17.638 10.4926 18.4932ZM9.8343 8.51237C9.32796 8.12979 8.8385 7.76409 8.34341 7.39276C8.30402 7.43214 8.29277 7.43777 8.28715 7.4434C7.67953 8.03977 7.07192 8.64177 6.46431 9.23252C6.3968 9.30003 6.4193 9.35067 6.45306 9.41255C6.6556 9.84014 6.90877 10.2283 7.23508 10.5772C7.28009 10.6278 7.33072 10.6728 7.37573 10.7235C6.92002 11.3873 6.59934 12.0962 6.41368 12.8051C5.88483 12.8952 5.39537 12.9739 4.90027 13.0583C4.80463 13.0752 4.74275 13.1033 4.74275 13.2271C4.73712 14.0316 4.72587 14.8362 4.70899 15.6407C4.70899 15.7533 4.74275 15.7983 4.84401 15.8376C5.31097 16.0064 5.79481 16.1077 6.29553 16.1133C6.40242 16.1133 6.44181 16.1527 6.46994 16.2484C6.66122 16.9235 6.96503 17.548 7.36448 18.1275C7.38698 18.1613 7.40948 18.195 7.43199 18.2344C7.41511 18.2288 7.40386 18.2231 7.38698 18.2119C7.07192 18.6564 6.76249 19.0952 6.44743 19.534C6.39117 19.6128 6.3968 19.6691 6.46994 19.7366C6.79062 20.0516 7.10005 20.3667 7.41511 20.693C7.51075 20.7887 7.6064 20.8056 7.74142 20.7493C7.68516 20.693 7.64578 20.6424 7.60077 20.5974C7.30822 20.2992 7.01566 20.0066 6.72311 19.7141C6.6556 19.6466 6.63872 19.5959 6.69498 19.5059C6.9594 19.0952 7.22945 18.6957 7.58952 18.3638C7.67953 18.285 7.69079 18.2288 7.61765 18.1275C7.16194 17.503 6.83 16.8166 6.63309 16.0683C6.59934 15.9445 6.5487 15.9108 6.42493 15.9108C5.95797 15.922 5.50789 15.8376 5.06343 15.697C4.97341 15.6689 4.92278 15.6295 4.92278 15.5226C4.93966 14.8024 4.94528 14.0823 4.96216 13.3678C4.96216 13.3227 5.02967 13.2384 5.06906 13.2327C5.50226 13.1708 5.94109 13.1089 6.37992 13.0696C6.51495 13.0583 6.57683 13.0246 6.61059 12.8895C6.79625 12.1412 7.11131 11.4549 7.55576 10.8304C7.6289 10.7235 7.61765 10.6616 7.52763 10.5772C7.18444 10.2621 6.92002 9.87953 6.70623 9.46319C6.66685 9.38442 6.66122 9.32816 6.73436 9.25502C7.25196 8.75429 7.76393 8.24794 8.27027 7.74158C8.32653 7.68532 8.37154 7.66844 8.44468 7.71345C8.88351 7.99476 9.31671 8.28169 9.6599 8.68678C9.73304 8.77117 9.7893 8.78242 9.89057 8.72616C10.4926 8.39422 11.1339 8.14667 11.809 8.00039C11.8934 7.98351 11.9778 7.95538 12.0622 7.93287C12.0622 7.89912 12.0622 7.88224 12.0622 7.87098C11.9778 7.28024 12.0566 6.70637 12.2254 6.13812C12.2535 6.0481 12.2873 5.99747 12.3998 5.99747C13.1143 6.0031 13.8288 6.0031 14.5433 5.99747C14.6333 5.99747 14.6783 6.01997 14.7008 6.10999C14.8358 6.66136 14.9259 7.21835 14.8696 7.78097C14.8527 7.93287 14.9034 7.95538 15.0271 7.98351C15.7191 8.13541 16.3774 8.36609 16.9906 8.71491C17.1144 8.78242 17.1763 8.75429 17.255 8.65865C17.5701 8.27607 17.9583 7.98351 18.3915 7.74158C18.4646 7.7022 18.5153 7.68532 18.5884 7.75283C19.1116 8.25356 19.6405 8.74867 20.1693 9.24377C20.2312 9.30003 20.2481 9.34504 20.1975 9.41818C19.9162 9.80639 19.6461 10.2002 19.3592 10.5828C19.2973 10.6616 19.2804 10.7122 19.3423 10.8022C19.798 11.4436 20.1187 12.1469 20.3044 12.9064C20.3381 13.0358 20.3944 13.0583 20.5125 13.0583C20.9345 13.0527 21.3452 13.1202 21.7559 13.2384C21.8459 13.2665 21.8853 13.3059 21.8853 13.4015C21.8965 14.1104 21.9021 14.8193 21.9247 15.5282C21.9303 15.652 21.8796 15.7026 21.7671 15.7195C21.3339 15.7814 20.9007 15.8545 20.4619 15.9108C20.3606 15.922 20.3044 15.9502 20.2762 16.0571C20.0793 16.7885 19.7586 17.4636 19.3198 18.0769C19.2523 18.1669 19.2523 18.2231 19.3423 18.3019C19.7136 18.6226 19.9949 19.0108 20.2312 19.4384C20.2875 19.5397 20.265 19.5959 20.1918 19.6691C19.8824 19.9785 19.5786 20.2936 19.2748 20.6086C19.2354 20.648 19.2017 20.6874 19.1623 20.7324C19.1679 20.7493 19.1791 20.7662 19.1848 20.783C19.2692 20.7605 19.3873 20.7662 19.4379 20.7155C19.8093 20.3555 20.1637 19.9841 20.5294 19.6072C20.2819 19.0558 19.9387 18.5776 19.4998 18.1669C19.9443 17.5311 20.2593 16.856 20.4675 16.119C21.0414 16.0964 21.5871 15.9783 22.0878 15.8264C22.0878 14.9375 22.0878 14.0823 22.0822 13.2271C22.0822 13.1821 22.009 13.1146 21.9584 13.0977C21.5365 12.9402 21.0976 12.867 20.6475 12.8614C20.535 12.8614 20.49 12.822 20.4619 12.7207C20.2819 12.04 19.9893 11.4155 19.6011 10.8247C19.573 10.7853 19.5561 10.746 19.5505 10.7403C19.8824 10.2452 20.2031 9.77826 20.5181 9.30566C20.445 9.23814 20.4056 9.19876 20.3606 9.15938C19.798 8.63052 19.2354 8.10166 18.6784 7.56154C18.5659 7.45465 18.4871 7.46027 18.369 7.52779C17.8852 7.78659 17.4576 8.11854 17.1313 8.49549C16.4393 8.23669 15.7698 7.98913 15.0834 7.73033C15.134 7.13396 15.0046 6.52633 14.864 5.9187C14.8415 5.81743 14.7965 5.78367 14.6896 5.78367C13.885 5.7893 13.0805 5.7893 12.276 5.78367C12.1635 5.78367 12.1185 5.82868 12.0847 5.92996C11.8991 6.46444 11.809 7.01018 11.8428 7.57842C11.8484 7.64594 11.8428 7.71345 11.8428 7.76409C11.4884 7.87661 11.1452 7.96663 10.8132 8.0904C10.4588 8.22543 10.1325 8.38297 9.8343 8.51237ZM13.8963 16.0121C13.8963 15.9558 13.8963 15.9108 13.8963 15.8658C13.8794 15.2975 13.8625 14.7293 13.8457 14.1554C13.8007 12.2988 13.75 10.4421 13.7106 8.57988C13.6994 8.02289 13.6488 7.47715 13.4856 6.94267C13.4687 6.89203 13.4518 6.84139 13.4406 6.79076C13.3393 7.15083 13.2268 7.50528 13.2099 7.85973C13.1424 9.26628 13.1087 10.6672 13.058 12.0737C13.0186 13.2946 12.9736 14.5099 12.9342 15.7307C12.9286 15.8208 12.9342 15.9108 12.9342 16.0064C13.2606 16.0121 13.57 16.0121 13.8963 16.0121ZM11.7528 18.2794C11.7528 18.6845 11.7528 19.0727 11.7528 19.4665C12.878 19.4665 13.9919 19.4665 15.1115 19.4665C15.1115 19.0671 15.1115 18.6789 15.1115 18.2794C13.9919 18.2794 12.8836 18.2794 11.7528 18.2794ZM8.12399 23.7818C8.22526 23.7537 8.31528 23.7424 8.39967 23.7087C8.70347 23.5736 9.0129 23.433 9.31108 23.2923C10.29 22.8197 11.3083 22.6847 12.3716 22.9041C12.6923 22.9716 13.0074 23.056 13.3393 23.1404C13.3393 22.9435 13.3337 22.7466 13.3393 22.5497C13.3449 22.4428 13.3056 22.4034 13.1987 22.3865C12.8105 22.3246 12.4279 22.2346 12.0341 22.184C11.1227 22.0714 10.2394 22.1671 9.40673 22.5778C9.0129 22.7691 8.6022 22.9435 8.20276 23.1292C8.169 23.146 8.12399 23.191 8.11837 23.2248C8.12399 23.3936 8.12399 23.5736 8.12399 23.7818ZM13.5081 23.1629C13.5869 23.1404 13.6488 23.1235 13.705 23.101C15.0721 22.6566 16.4055 22.7072 17.6939 23.388C17.9077 23.5005 18.1215 23.5961 18.3409 23.6918C18.4421 23.7368 18.5547 23.7537 18.6841 23.7931C18.6841 23.5849 18.6897 23.4105 18.6784 23.2361C18.6784 23.1967 18.6278 23.146 18.5884 23.1292C18.3127 22.9998 18.0258 22.8985 17.7614 22.7522C16.8162 22.229 15.8092 22.0489 14.7402 22.1952C14.3239 22.2515 13.9132 22.3359 13.5025 22.4034C13.5081 22.6734 13.5081 22.9041 13.5081 23.1629ZM14.037 7.62906C14.0032 7.62906 13.9751 7.62343 13.9413 7.62343C13.9188 7.70783 13.8682 7.78659 13.8738 7.87098C13.885 8.45611 13.9019 9.04123 13.9188 9.62635C13.9638 11.4661 14.0088 13.3059 14.0595 15.1513C14.0651 15.4494 14.082 15.742 14.0932 16.0458C14.2339 16.0627 14.3576 16.0739 14.4927 16.0908C14.4927 16.0289 14.4927 15.9783 14.4927 15.9333C14.4589 15.1062 14.4251 14.2736 14.3858 13.4465C14.3014 11.6293 14.2226 9.81201 14.1326 7.99476C14.1213 7.86536 14.0707 7.74721 14.037 7.62906ZM12.3885 16.0458C12.743 16.0796 12.7486 16.0683 12.7598 15.7533C12.7823 14.9656 12.8105 14.1779 12.833 13.3903C12.8949 11.5674 12.9511 9.75013 13.0186 7.92725C13.0243 7.78659 12.9793 7.69657 12.833 7.61781C12.7992 7.73033 12.7542 7.82597 12.7486 7.92725C12.6867 9.23252 12.6361 10.5322 12.5742 11.8374C12.5348 12.6701 12.4954 13.5084 12.456 14.3411C12.4335 14.9093 12.411 15.4719 12.3885 16.0458ZM12.501 9.01872C10.4307 9.22689 7.81456 11.0554 7.61765 14.1442C7.54451 15.3257 7.85394 16.4171 8.50656 17.4073C9.0129 18.1669 9.66552 18.7689 10.4757 19.2133C10.5376 19.0614 10.4813 18.9939 10.3688 18.9264C7.99459 17.458 7.11693 14.5718 8.34903 12.1581C9.18169 10.5265 10.5432 9.58134 12.321 9.22126C12.4448 9.20439 12.5629 9.19876 12.501 9.01872ZM21.1089 21.5088C15.9723 21.5088 10.847 21.5088 5.72167 21.5088C5.67667 21.7001 5.81732 21.6551 5.90171 21.6551C10.9145 21.6551 15.9217 21.6551 20.9345 21.6551C20.9626 21.6551 20.9851 21.6551 21.0132 21.6551C21.1145 21.6607 21.1483 21.6213 21.1089 21.5088ZM16.3886 19.1402C17.947 18.3525 19.6067 16.1415 19.0723 13.424C18.5378 10.7178 16.1411 9.22689 14.3745 9.0356C14.352 9.19876 14.352 9.20439 14.5039 9.23252C15.5279 9.44069 16.4449 9.86827 17.2157 10.5772C18.5603 11.8149 19.1679 13.3509 18.9204 15.1681C18.7009 16.766 17.8458 17.9868 16.5012 18.8702C16.383 18.9433 16.3436 19.0164 16.3886 19.1402ZM12.3604 17.4242C13.0693 17.4242 13.7557 17.4242 14.4589 17.4242C14.4589 17.1542 14.4645 16.8672 14.4533 16.5803C14.4533 16.5465 14.3801 16.4959 14.3351 16.4903C13.8063 16.4115 13.2774 16.4115 12.743 16.4621C12.6136 16.4734 12.4842 16.4959 12.3604 16.5128C12.3604 16.8391 12.3604 17.1373 12.3604 17.4242ZM13.3562 23.6355C13.4068 23.3092 13.4068 23.3092 13.1143 23.2192C13.0974 23.2136 13.0862 23.2079 13.0693 23.2023C12.2085 22.9379 11.3365 22.831 10.4475 23.0279C9.91307 23.146 9.42923 23.3823 8.93977 23.6074C8.69222 23.7199 8.4278 23.7987 8.169 23.8999C8.12962 23.9168 8.09024 23.9337 8.06773 23.9675C8.00022 24.0744 7.93833 24.1813 7.87082 24.305C8.17463 24.3388 8.44468 24.305 8.70347 24.1925C9.03541 24.0519 9.36734 23.8999 9.67678 23.7255C10.6051 23.2023 11.5728 23.101 12.5854 23.3936C12.8442 23.4611 13.103 23.5511 13.3562 23.6355ZM13.5137 23.6468C13.6375 23.6018 13.75 23.5624 13.8682 23.523C14.5939 23.2754 15.3309 23.146 16.0961 23.3205C16.5405 23.4217 16.94 23.6355 17.3451 23.8381C17.6489 23.99 17.9583 24.1362 18.279 24.2488C18.4815 24.3219 18.7066 24.3219 18.926 24.35C18.9372 24.3275 18.9485 24.3107 18.9541 24.2882C18.8697 24.1644 18.8022 23.9618 18.6897 23.9393C18.2115 23.8268 17.8008 23.568 17.3563 23.3711C16.895 23.1685 16.4224 23.0166 15.9217 22.966C15.1847 22.8872 14.4702 22.9998 13.7669 23.2248C13.4462 23.3261 13.5025 23.2417 13.4969 23.6018C13.4969 23.6074 13.5025 23.6186 13.5137 23.6468ZM17.7951 20.4624C17.8402 20.2542 17.8289 20.2373 17.632 20.2373C14.8077 20.2373 11.9778 20.2373 9.15356 20.2373C8.96227 20.2373 8.94539 20.2654 9.00728 20.4624C11.9384 20.4624 14.8696 20.4624 17.7951 20.4624ZM13.4181 21.2163C11.1452 21.2163 8.86663 21.2163 6.59371 21.2163C6.53182 21.2163 6.46994 21.2556 6.40805 21.2725C6.46994 21.2894 6.53182 21.3175 6.59371 21.3175C11.1339 21.3175 15.6685 21.3175 20.2087 21.3175C20.2706 21.3175 20.3325 21.2782 20.3944 21.2613C20.3325 21.2444 20.2706 21.2163 20.2087 21.2163C17.947 21.2163 15.6798 21.2163 13.4181 21.2163ZM19.3254 6.59384C19.4942 6.40818 19.6686 6.21689 19.8374 6.0256C19.843 6.03123 19.843 6.03123 19.8486 6.03685C19.7136 6.25065 19.5842 6.46444 19.4436 6.68949C19.528 6.74012 19.5955 6.77951 19.6742 6.83014C19.9105 6.45319 20.1356 6.09311 20.3719 5.71616C20.2537 5.63177 20.1412 5.56425 20.0287 5.49111C19.8374 5.67115 19.6517 5.84556 19.4661 6.01997C19.4548 6.01435 19.4436 6.00872 19.4379 6.0031C19.5111 5.76117 19.5842 5.51362 19.663 5.26607C19.5448 5.19293 19.4436 5.12541 19.3198 5.04665C19.0835 5.4236 18.8585 5.7893 18.6222 6.16625C18.7066 6.21689 18.7741 6.2619 18.8528 6.30691C18.9935 6.08186 19.1285 5.87369 19.2579 5.66552C19.2242 5.85119 19.1679 6.01997 19.1116 6.18876C19.0272 6.43631 19.0272 6.43631 19.3254 6.59384ZM7.10568 20.9743C7.27446 21.0644 19.6405 21.0587 19.7361 20.9743C15.5279 20.9743 11.3365 20.9743 7.10568 20.9743ZM16.1973 19.6634C16.1973 19.2471 16.1973 18.8589 16.1917 18.4651C16.1917 18.4426 16.1523 18.3976 16.1242 18.3976C15.8598 18.3525 15.5954 18.3132 15.3084 18.2682C15.3084 18.662 15.3084 19.0333 15.3141 19.399C15.3141 19.4271 15.3534 19.4778 15.3816 19.4834C15.6516 19.5453 15.9104 19.6016 16.1973 19.6634ZM11.5559 18.2907C11.2858 18.33 11.0495 18.3694 10.8076 18.3976C10.712 18.4088 10.6782 18.4426 10.6838 18.5382C10.6895 18.8026 10.6838 19.0727 10.6838 19.3371C10.6838 19.444 10.6838 19.5565 10.6838 19.6803C10.8526 19.6466 10.9933 19.6184 11.1283 19.5847C11.5502 19.489 11.5502 19.489 11.5502 19.0614C11.5559 18.8083 11.5559 18.5607 11.5559 18.2907ZM13.39 20.7718C15.0946 20.7718 16.7993 20.7718 18.504 20.7718C18.5715 20.7718 18.639 20.738 18.7009 20.7212C18.6334 20.6987 18.5659 20.6593 18.4984 20.6593C15.1003 20.6536 11.7021 20.6536 8.30402 20.6593C8.23651 20.6593 8.17463 20.6874 8.10711 20.7043C8.17463 20.7268 8.24214 20.7662 8.30965 20.7662C9.99746 20.7718 11.6965 20.7718 13.39 20.7718ZM17.6995 5.64302C17.6432 5.42923 17.5926 5.22106 17.5363 5.00726C17.5588 5.00164 17.5814 4.99601 17.6095 4.99038C17.7951 4.93975 17.8964 4.83285 17.9133 4.66407C17.9358 4.47278 17.8795 4.36025 17.6826 4.27586C17.4688 4.18584 17.2494 4.1127 17.0188 4.02831C16.8725 4.45027 16.7318 4.86098 16.5855 5.27732C16.6868 5.31108 16.7656 5.33921 16.8556 5.36734C16.9175 5.19293 16.9794 5.02977 17.0356 4.87223C17.0525 4.86661 17.075 4.86098 17.0919 4.85536C17.1425 4.93412 17.2044 5.00164 17.2438 5.08603C17.2832 5.1648 17.2944 5.26044 17.3169 5.34483C17.3844 5.58676 17.4069 5.60926 17.6995 5.64302ZM11.5277 3.64573C11.5728 4.07894 11.6178 4.50091 11.6628 4.93412C11.764 4.92287 11.8428 4.91162 11.9328 4.90037C11.9103 4.65844 11.8878 4.42214 11.8653 4.19147C12.0341 4.36588 12.1747 4.55154 12.3154 4.73158C12.4279 4.87223 12.5067 4.88911 12.6867 4.79347C12.6417 4.37151 12.5967 3.94954 12.5517 3.51633C12.4448 3.52195 12.3716 3.52758 12.2816 3.53883C12.3041 3.79201 12.3266 4.03394 12.3491 4.27023C12.1804 4.10145 12.0341 3.93266 11.9159 3.747C11.8203 3.58947 11.7078 3.56134 11.5277 3.64573ZM23.3312 9.18751C22.9317 9.36755 22.5379 9.54196 22.1384 9.722C22.1834 9.81764 22.2172 9.88515 22.2566 9.96392C22.4873 9.86265 22.7123 9.767 22.9711 9.64885C22.8136 9.8739 22.6842 10.0596 22.5548 10.2509C22.431 10.4309 22.431 10.459 22.5885 10.6503C22.9767 10.4759 23.3649 10.3015 23.77 10.1215C23.725 10.0314 23.6912 9.95829 23.6518 9.87953C23.4156 9.9808 23.1961 10.0764 22.9767 10.1721C23.0836 9.96392 23.2018 9.77263 23.3424 9.60384C23.4606 9.46319 23.4549 9.33941 23.3312 9.18751ZM8.61908 5.98622C8.50656 5.76117 8.39967 5.54738 8.2984 5.33921C8.50656 5.43485 8.69222 5.54738 8.87788 5.66552C9.08042 5.79493 9.0973 5.7893 9.29421 5.62052C9.10292 5.24356 8.90601 4.86098 8.70347 4.46715C8.61346 4.51779 8.54594 4.55717 8.47281 4.60218C8.59095 4.83285 8.69785 5.04665 8.80474 5.26044C8.59095 5.15917 8.39967 5.04102 8.20276 4.91724C8.00584 4.79347 7.98334 4.79347 7.79206 4.95663C7.98897 5.33921 8.18588 5.72179 8.38841 6.10999C8.47281 6.06498 8.53469 6.03123 8.61908 5.98622ZM15.3366 4.00018C15.3253 3.79764 15.2184 3.66823 15.044 3.59509C14.8077 3.49945 14.5714 3.49382 14.3689 3.66823C14.082 3.91016 14.0313 4.37713 14.2451 4.66407C14.442 4.9285 14.8921 4.99038 15.2015 4.79347C15.2297 4.77659 15.2747 4.74846 15.2747 4.72033C15.2972 4.55717 15.3084 4.38838 15.3253 4.2196C15.2072 4.20272 15.1228 4.19147 15.0328 4.18584C14.9427 4.18022 14.8471 4.17459 14.7458 4.16896C14.7402 4.25898 14.7402 4.3265 14.7346 4.39964C14.8302 4.41651 14.909 4.43339 15.0215 4.4559C14.9934 4.51216 14.9765 4.57405 14.9427 4.59655C14.729 4.73721 14.4477 4.59655 14.4251 4.33775C14.4195 4.25336 14.4139 4.16334 14.4364 4.08457C14.4645 3.95517 14.5264 3.83139 14.6727 3.81451C14.774 3.80889 14.9315 3.82577 14.9709 3.88765C15.0609 4.05081 15.179 4.02831 15.3366 4.00018ZM23.3255 11.6293C23.2636 11.6236 23.1961 11.6405 23.1736 11.6124C22.9598 11.4155 22.9823 11.1342 23.2074 11.0329C23.3255 10.9823 23.4606 10.9485 23.59 10.9541C23.7869 10.9598 23.9163 11.1735 23.8488 11.3592C23.8263 11.4211 23.7756 11.4717 23.7362 11.5336C23.7756 11.6068 23.815 11.6799 23.8544 11.753C24.1919 11.5618 24.237 11.1173 23.95 10.8304C23.6912 10.5715 23.2524 10.5884 22.9373 10.8641C22.701 11.0723 22.701 11.4774 22.9317 11.7755C23.0386 11.9162 23.1511 12.0118 23.348 11.9162C23.4324 11.8712 23.5393 11.8599 23.6518 11.8262C23.6012 11.6349 23.5506 11.4549 23.5056 11.2748C23.2749 11.3142 23.2749 11.3142 23.3255 11.6293ZM3.83133 9.44069C3.48814 9.44069 3.20121 9.73887 3.20684 10.0933C3.21246 10.4196 3.58378 10.7347 3.97198 10.7403C4.29829 10.746 4.57959 10.4421 4.58522 10.0933C4.58522 9.75013 4.23078 9.44069 3.83133 9.44069ZM9.59239 4.13521C9.72178 4.5628 9.85118 4.97913 9.98058 5.40109C10.0819 5.36734 10.1662 5.33921 10.2506 5.30545C10.2056 5.09728 10.065 4.90037 10.2731 4.70908C10.3632 4.79347 10.4757 4.86661 10.5488 4.96788C10.6951 5.15917 10.8639 5.1648 11.0552 5.06915C11.0608 5.06352 11.0664 5.0579 11.0889 5.04102C10.892 4.86661 10.6895 4.6922 10.4869 4.52341C10.4138 4.46152 10.3913 4.41651 10.4419 4.3265C10.5319 4.16896 10.6051 4.00018 10.7007 3.81451C10.4869 3.8539 10.3125 3.88765 10.2394 4.10145C10.1887 4.25336 10.11 4.38838 10.0312 4.56279C9.96933 4.37151 9.9187 4.2196 9.86806 4.05644C9.77242 4.07894 9.69365 4.10145 9.59239 4.13521ZM12.923 4.79909C13.2662 4.79909 13.5812 4.79909 13.9076 4.79909C13.9076 4.7147 13.9076 4.64156 13.9076 4.55154C13.6769 4.55154 13.4462 4.55154 13.2268 4.55154C13.2268 4.43902 13.2268 4.349 13.2268 4.23648C13.435 4.23648 13.6263 4.23648 13.84 4.23648C13.8344 4.14083 13.8288 4.06769 13.8232 3.97767C13.615 3.97767 13.4181 3.97767 13.2156 3.97767C13.2156 3.89891 13.2156 3.83139 13.2156 3.75263C13.4406 3.74137 13.6544 3.73012 13.8794 3.71887C13.8738 3.62885 13.8738 3.56134 13.8682 3.49945C13.5362 3.49945 13.2268 3.49945 12.923 3.49945C12.923 3.94954 12.923 4.37151 12.923 4.79909ZM7.42636 6.0481C7.55576 6.11562 7.68516 6.18313 7.81456 6.25065C8.03398 6.36317 8.10711 6.35192 8.28715 6.14375C8.0171 6.00872 7.74705 5.87932 7.477 5.74992C7.52201 5.51924 7.56139 5.29982 7.60077 5.07478C7.37573 5.1648 7.23508 5.27732 7.22945 5.51924C7.22945 5.6599 7.18444 5.79493 7.15631 5.96371C7.04942 5.80055 6.96503 5.66552 6.86376 5.51924C6.77937 5.57551 6.70623 5.62614 6.62747 5.67678C6.86376 6.05373 7.0888 6.41943 7.32509 6.79076C7.41511 6.72887 7.48825 6.68386 7.56139 6.63323C7.46012 6.44194 7.27446 6.2844 7.42636 6.0481ZM15.4547 4.99038C15.7866 5.07478 16.0961 5.14792 16.4168 5.22668C16.4393 5.13666 16.4561 5.06915 16.473 4.98476C16.2424 4.92287 16.0229 4.86661 15.7923 4.80472C15.8204 4.69782 15.8485 4.61343 15.8767 4.51216C16.0792 4.5628 16.2761 4.6078 16.4674 4.65281C16.5687 4.41652 16.5687 4.41651 16.338 4.36025C16.203 4.3265 16.0736 4.29274 15.9329 4.25898C15.9554 4.17459 15.9779 4.10708 16.0004 4.02831C16.2255 4.07894 16.4336 4.12958 16.6643 4.18584C16.6474 4.07894 16.7825 3.96642 16.6306 3.92141C16.3549 3.83702 16.068 3.78076 15.7754 3.70762C15.6685 4.14083 15.5616 4.55717 15.4547 4.99038ZM5.5754 6.56571C5.87358 6.90891 6.15488 7.23523 6.44181 7.56154C6.69498 7.34212 6.9369 7.12833 7.17882 6.91454C7.12256 6.84702 7.07755 6.79639 7.02129 6.72887C6.84126 6.88078 6.67247 7.02706 6.48682 7.18459C6.4193 7.10582 6.35179 7.02706 6.28428 6.94829C6.44743 6.80764 6.59934 6.66698 6.75687 6.53196C6.69498 6.46444 6.63872 6.40818 6.58808 6.35192C6.43056 6.49257 6.27865 6.62197 6.12112 6.76263C6.06486 6.70074 6.0086 6.63885 5.95234 6.57696C6.13238 6.41943 6.30116 6.27315 6.46431 6.12687C6.40242 6.05936 6.35179 6.0031 6.29553 5.94683C6.05924 6.14375 5.82294 6.35192 5.5754 6.56571ZM20.58 7.25773C20.49 7.60093 20.49 7.60093 20.7319 7.74158C20.8726 7.32525 21.0132 6.90891 21.1483 6.49257C21.1595 6.45319 21.1089 6.3688 21.0639 6.33504C21.0189 6.29566 20.9288 6.25627 20.8951 6.27315C20.5069 6.47569 20.1243 6.69511 19.7249 6.92016C19.8149 6.9933 19.8824 7.05519 19.9555 7.11708C20.0512 7.06082 20.1356 7.01581 20.2256 6.96517C20.3437 7.06082 20.4619 7.15646 20.58 7.25773ZM3.57253 11.5955C3.60066 11.4774 3.62879 11.3761 3.64567 11.2692C3.68505 11.0498 3.55003 10.8529 3.31936 10.7966C3.10557 10.7403 2.91991 10.8472 2.84677 11.061C2.81302 11.1679 2.77926 11.2748 2.75113 11.3817C2.67799 11.663 2.67799 11.663 2.95929 11.7362C3.29123 11.8262 3.61754 11.9106 3.9551 12.0006C3.98323 11.8993 4.00573 11.8149 4.02824 11.7249C3.87634 11.6799 3.73569 11.6405 3.57253 11.5955ZM17.3507 20.0348C17.1932 19.9391 9.68803 19.9504 9.58676 20.0348C12.186 20.0348 14.7683 20.0348 17.3507 20.0348ZM12.1747 16.5297C11.9609 16.569 11.7697 16.6028 11.584 16.6422C11.5615 16.6478 11.5334 16.6872 11.5334 16.7097C11.5277 17.0023 11.5334 17.2892 11.5334 17.593C11.7415 17.5593 11.9216 17.5255 12.1016 17.4917C12.1297 17.4861 12.1747 17.4355 12.1747 17.4073C12.1747 17.1204 12.1747 16.8391 12.1747 16.5297ZM15.2803 17.593C15.2803 17.2892 15.2803 17.0023 15.2747 16.721C15.2747 16.6928 15.2353 16.6422 15.2072 16.6366C15.0271 16.5972 14.8471 16.569 14.6558 16.5297C14.6558 16.8672 14.6558 17.1767 14.6558 17.4861C14.8696 17.5199 15.0665 17.5536 15.2803 17.593ZM6.08174 7.92725C5.81169 7.69095 5.54727 7.46027 5.28285 7.22397C5.36724 7.1227 5.44037 7.03268 5.51914 6.94267C5.45163 6.8864 5.39537 6.84139 5.33348 6.78513C5.10844 7.04394 4.88902 7.29711 4.65835 7.55592C4.72587 7.61218 4.78213 7.65719 4.84401 7.70783C4.93403 7.61218 5.00717 7.53341 5.09156 7.4434C5.36161 7.67969 5.62603 7.90474 5.89046 8.13541C5.95234 8.0679 6.0086 8.00039 6.08174 7.92725ZM5.11969 8.72616C5.00154 8.9062 4.88902 9.07499 4.77088 9.2494C4.4727 9.05811 4.18014 8.86682 3.88196 8.67553C3.8257 8.76555 3.78069 8.83869 3.73006 8.91745C4.10138 9.15938 4.45582 9.38443 4.82151 9.62635C4.99029 9.36755 5.15345 9.11999 5.32223 8.86119C5.25471 8.81618 5.19283 8.7768 5.11969 8.72616ZM13.84 17.5818C13.5812 17.5818 13.3337 17.5761 13.0918 17.5874C13.058 17.5874 13.0018 17.6493 13.0018 17.683C13.0074 17.8181 13.0299 17.9531 13.0468 18.0881C13.0468 18.0881 13.058 18.0937 13.0636 18.0937C13.3224 18.0937 13.5812 18.0937 13.84 18.0937C13.84 17.9137 13.84 17.7618 13.84 17.5818ZM9.78367 5.45736C9.61489 5.04665 9.45174 4.64719 9.28858 4.23648C9.19294 4.27586 9.10855 4.30962 9.01853 4.349C9.18731 4.75971 9.35047 5.15917 9.51362 5.56988C9.61489 5.5305 9.69365 5.49674 9.78367 5.45736ZM18.0089 5.84556C18.2002 5.44048 18.3803 5.05227 18.5603 4.66407C18.3184 4.50091 18.3184 4.50091 18.2115 4.73721C18.1215 4.93412 18.0258 5.13104 17.9358 5.32795C17.8739 5.45736 17.8176 5.58676 17.7558 5.72179C17.8458 5.7668 17.9133 5.80055 18.0089 5.84556ZM4.3658 7.9385C4.71462 8.20855 5.05218 8.47861 5.40099 8.74867C5.46288 8.6699 5.51351 8.60239 5.5754 8.52362C5.23221 8.24794 4.89465 7.98913 4.54583 7.71908C4.48395 7.79222 4.42769 7.85973 4.3658 7.9385ZM15.2128 19.7028C15.2072 19.6747 15.2072 19.6522 15.2015 19.6241C14.9259 19.6466 14.6502 19.6634 14.3745 19.6859C14.1382 19.7085 13.8963 19.7703 13.66 19.7591C13.1649 19.7422 12.6755 19.6859 12.1804 19.6522C12.0003 19.6409 11.8147 19.6522 11.6346 19.6522C11.6346 19.6747 11.6346 19.6972 11.629 19.7197C11.7865 19.7422 11.9384 19.7872 12.096 19.7872C12.9511 19.7928 13.8119 19.7928 14.6671 19.7872C14.8527 19.7872 15.0328 19.7366 15.2128 19.7028ZM14.037 17.593C14.037 17.7112 14.037 17.8068 14.037 17.8968C14.037 18.105 14.0707 18.1275 14.2789 18.06C14.2789 17.9193 14.2789 17.7787 14.2789 17.6324C14.2057 17.6211 14.1382 17.6099 14.037 17.593ZM12.8105 17.548C12.7205 17.6099 12.6248 17.6436 12.6136 17.6943C12.5911 17.8124 12.6079 17.9418 12.6079 18.0769C12.6867 18.0769 12.7486 18.0769 12.8161 18.0769C12.8105 17.9137 12.8105 17.7618 12.8105 17.548ZM14.9596 21.852C14.774 21.8183 14.7458 21.8464 14.774 22.0602C14.9596 22.0658 14.9709 22.0546 14.9596 21.852ZM12.0622 22.0433C12.0735 21.8351 12.0566 21.8183 11.8709 21.8576C11.8484 22.0039 11.8991 22.0714 12.0622 22.0433Z" fill="#1B84FF"/>
<path d="M17.7961 14.324C17.9649 14.2846 18.1731 14.234 18.4038 14.1777C18.4319 14.836 18.3306 15.4549 18.0999 16.0681C17.8974 16.0006 17.7117 15.9387 17.543 15.8825C17.6274 15.3592 17.7117 14.8585 17.7961 14.324Z" fill="#1B84FF"/>
<path d="M9.28292 15.905C9.09726 15.9612 8.92848 16.0119 8.73719 16.0625C8.5009 15.4549 8.41088 14.836 8.42776 14.1721C8.61342 14.2171 8.78783 14.2509 8.95661 14.3015C8.99036 14.3128 9.0185 14.3859 9.0185 14.4309C9.02412 14.9317 9.13102 15.4099 9.28292 15.905Z" fill="#1B84FF"/>
<path d="M17.2446 11.3703C17.0364 11.4209 16.862 11.4716 16.6876 11.5053C16.6426 11.511 16.5863 11.4828 16.547 11.4547C16.3219 11.2747 16.0856 11.0946 15.8775 10.8977C15.7368 10.7627 15.6243 10.5995 15.4893 10.4364C15.6974 10.3407 15.8775 10.2394 16.1137 10.4082C16.5076 10.6783 16.8901 10.9652 17.2446 11.3703Z" fill="#1B84FF"/>
<path d="M9.56445 11.3985C9.8345 11.0778 10.1214 10.8302 10.4309 10.6052C10.5153 10.5433 10.5996 10.4927 10.684 10.4364C10.9653 10.2564 10.9878 10.2564 11.3254 10.4645C11.1341 10.6389 10.9541 10.8021 10.774 10.9709C10.594 11.1284 10.4084 11.2803 10.2396 11.4435C10.1664 11.511 10.1046 11.5504 10.0033 11.5166C9.86826 11.4716 9.73323 11.4435 9.56445 11.3985Z" fill="#1B84FF"/>
<path d="M18.0091 12.625C17.8347 12.6701 17.6659 12.7207 17.4915 12.7601C17.4578 12.7657 17.4015 12.7488 17.3846 12.7263C17.199 12.3944 17.0133 12.0624 16.8276 11.7192C16.9908 11.663 17.1596 11.6011 17.334 11.5448C17.3565 11.5392 17.4071 11.5617 17.424 11.5842C17.6322 11.9049 17.8403 12.2312 18.0485 12.5575C18.0316 12.58 18.0204 12.6025 18.0091 12.625Z" fill="#1B84FF"/>
<path d="M18.1273 12.7996C18.2005 13.0977 18.2849 13.3903 18.3411 13.6829C18.3974 13.9698 18.3805 13.9754 18.0936 14.0373C17.7448 14.1105 17.7504 14.1105 17.6829 13.756C17.6435 13.5422 17.5872 13.334 17.531 13.1203C17.5085 13.0359 17.5197 12.9965 17.6097 12.9683C17.7729 12.9233 17.9304 12.8671 18.1273 12.7996Z" fill="#1B84FF"/>
<path d="M16.8276 17.1372C16.9458 16.9516 17.0639 16.7659 17.1765 16.5746C17.2383 16.4677 17.2946 16.3496 17.3452 16.237C17.3902 16.1414 17.4409 16.0908 17.5534 16.1301C17.6997 16.1808 17.8459 16.2202 18.026 16.2708C17.9191 16.4677 17.8291 16.6421 17.7334 16.8165C17.7109 16.8615 17.6772 16.9065 17.649 16.9516C17.3621 17.3848 17.3058 17.4017 16.8276 17.1372Z" fill="#1B84FF"/>
<path d="M9.26596 12.9625C9.19282 13.317 9.1253 13.6489 9.04654 13.9753C9.04091 14.009 8.97903 14.0371 8.93965 14.0597C8.92839 14.0653 8.91152 14.054 8.89464 14.054C8.4333 13.9753 8.42768 13.9753 8.52332 13.5139C8.5627 13.3114 8.63021 13.1145 8.68647 12.9175C8.70898 12.8275 8.75399 12.7994 8.84963 12.8331C8.98465 12.8838 9.13093 12.9175 9.26596 12.9625Z" fill="#1B84FF"/>
<path d="M9.93013 11.7417C9.75572 12.0681 9.58694 12.3775 9.41253 12.6869C9.39565 12.7151 9.34502 12.7376 9.31126 12.7263C9.15373 12.6926 8.99621 12.6475 8.81055 12.6025C8.86118 12.49 8.90056 12.3887 8.9512 12.3044C9.0806 12.0849 9.21562 11.8711 9.3619 11.6573C9.3844 11.618 9.45754 11.5842 9.49692 11.5955C9.6432 11.6348 9.78948 11.6911 9.93013 11.7417Z" fill="#1B84FF"/>
<path d="M9.95921 17.1823C9.82419 17.2273 9.69479 17.278 9.55976 17.3173C9.52038 17.3286 9.4585 17.3173 9.43599 17.2892C9.18845 16.9854 8.98028 16.6534 8.82275 16.2652C8.98591 16.2259 9.13219 16.1808 9.28409 16.1527C9.32347 16.1471 9.39098 16.1808 9.41349 16.2146C9.59915 16.5184 9.77355 16.8279 9.95359 17.1317C9.95359 17.1373 9.95359 17.1486 9.95921 17.1823Z" fill="#1B84FF"/>
<path d="M12.0739 9.85136C11.8995 9.97514 11.7363 10.1214 11.5507 10.2227C11.4719 10.2621 11.3481 10.2114 11.2412 10.2002C11.2356 10.1777 11.2356 10.1552 11.23 10.1327C11.5057 10.0314 11.787 9.93013 12.0626 9.82886C12.0683 9.83448 12.0683 9.84011 12.0739 9.85136Z" fill="#1B84FF"/>
<path d="M15.6126 10.127C15.4157 10.2339 15.2751 10.2677 15.1288 10.1158C15.0331 10.0201 14.915 9.94699 14.8081 9.84009C15.0669 9.93011 15.3201 10.0201 15.6126 10.127Z" fill="#1B84FF"/>
<path d="M17.2099 4.37695C17.3224 4.41634 17.4293 4.43884 17.5193 4.48948C17.57 4.51761 17.6093 4.602 17.6037 4.65264C17.5981 4.68639 17.5025 4.74265 17.4518 4.73703C17.3393 4.72578 17.2324 4.68077 17.1143 4.64701C17.148 4.55136 17.1761 4.4726 17.2099 4.37695Z" fill="#1B84FF"/>
<path d="M3.97802 10.4703C3.85425 10.4084 3.7136 10.3634 3.60108 10.2846C3.47731 10.2002 3.46043 10.0596 3.51106 9.92455C3.55607 9.78952 3.66296 9.70513 3.80362 9.73889C3.94427 9.77265 4.09054 9.82328 4.20869 9.90205C4.31558 9.97519 4.34934 10.1102 4.29308 10.2452C4.23682 10.3803 4.14118 10.4422 3.97802 10.4703Z" fill="#1B84FF"/>
<path d="M22.105 8.66425C22.2456 8.63049 22.3582 8.60236 22.5101 8.5686C22.42 8.69801 22.3469 8.79365 22.2681 8.90617C22.2119 8.82741 22.1669 8.75427 22.105 8.66425Z" fill="#1B84FF"/>
<path d="M20.823 6.60498C20.7667 6.76251 20.7217 6.87504 20.6767 7.00444C20.6036 6.94818 20.5417 6.89192 20.4517 6.8244C20.5754 6.75689 20.6823 6.68937 20.823 6.60498Z" fill="#1B84FF"/>
<path d="M3.34788 11.5391C3.20723 11.4997 3.11721 11.4716 2.97656 11.4322C3.0497 11.3084 3.10596 11.1959 3.18473 11.1003C3.2016 11.0834 3.33663 11.1228 3.34225 11.1453C3.35913 11.2691 3.34788 11.3928 3.34788 11.5391Z" fill="#1B84FF"/>
</g>
<defs>
<clipPath id="clip0_902_4658">
<rect width="26.7462" height="27" fill="white"/>
</clipPath>
</defs>
</svg>
