<svg width="130" height="27" viewBox="0 0 130 27" fill="none" xmlns="http://www.w3.org/2000/svg">
<path d="M20.6789 11.8494C20.2953 12.2354 20.0015 12.7014 19.8185 13.2139C19.6355 13.7266 19.5678 14.2732 19.6201 14.815L19.6019 14.7968C19.6558 15.4346 19.5697 16.0763 19.35 16.6775C19.1302 17.2785 18.782 17.8243 18.3296 18.2769C17.8772 18.7294 17.3315 19.0778 16.7305 19.2976C16.1297 19.5174 15.488 19.6034 14.8506 19.5496L14.8688 19.5678C14.1062 19.4968 13.3402 19.6628 12.6753 20.0432C12.0105 20.4236 11.4791 20.9998 11.1536 21.6934C10.8282 22.387 10.7245 23.164 10.8566 23.9187C10.9889 24.6733 11.3506 25.3688 11.8925 25.9103C12.4343 26.4518 13.1299 26.813 13.8844 26.9445C14.639 27.0761 15.4157 26.9716 16.1087 26.6455C16.8018 26.3193 17.3774 25.7873 17.757 25.1219C18.1367 24.4564 18.302 23.6902 18.2303 22.9273L18.2496 22.9456C18.1957 22.3079 18.2817 21.666 18.5014 21.0649C18.7212 20.4639 19.0695 19.918 19.5218 19.4654C19.9743 19.0129 20.52 18.6645 21.1208 18.4448C21.7218 18.225 22.3633 18.1389 23.0009 18.1928L22.9817 18.1746C23.6046 18.2306 24.2317 18.1284 24.8047 17.8775C25.3776 17.6266 25.8781 17.2351 26.2595 16.7392C26.6409 16.2434 26.8911 15.6592 26.9866 15.0409C27.0823 14.4226 27.0203 13.7902 26.8066 13.2021C26.5928 12.6141 26.234 12.0896 25.7637 11.6772C25.2933 11.2648 24.7265 10.9779 24.1157 10.843C23.5049 10.7082 22.8699 10.7296 22.2697 10.9055C21.6695 11.0815 21.1234 11.4061 20.6819 11.8494H20.6789Z" fill="white"/>
<path d="M13.2114 17.1801L13.1921 17.1619C13.734 17.2165 14.2812 17.1499 14.7943 16.9671C15.3073 16.7842 15.7733 16.4897 16.1585 16.1046C16.5437 15.7196 16.8387 15.2536 17.0218 14.7406C17.205 14.2275 17.2719 13.6802 17.2177 13.1381L17.237 13.1564C17.1831 12.5186 17.2692 11.8768 17.4888 11.2757C17.7086 10.6747 18.0569 10.1288 18.5092 9.67624C18.9617 9.22375 19.5074 8.87534 20.1082 8.65562C20.7092 8.43576 21.3507 8.34977 21.9883 8.40361L21.9691 8.38538C22.7318 8.45707 23.4979 8.29158 24.1632 7.91162C24.8285 7.53167 25.3603 6.95568 25.6862 6.26223C26.0122 5.5688 26.1163 4.79166 25.9845 4.03682C25.8528 3.28198 25.4914 2.5862 24.9496 2.04436C24.408 1.50253 23.7124 1.14102 22.9578 1.00917C22.2032 0.877309 21.4263 0.981507 20.7331 1.30756C20.0398 1.6336 19.464 2.16563 19.0842 2.83106C18.7043 3.49649 18.5389 4.26293 18.6105 5.02585L18.5923 5.00661C18.6463 5.64438 18.5604 6.28626 18.3408 6.88741C18.1211 7.48856 17.7728 8.0345 17.3205 8.48714C16.868 8.93963 16.3222 9.28804 15.7213 9.50776C15.1202 9.72747 14.4786 9.81333 13.841 9.75937L13.8592 9.77861C13.3174 9.72403 12.7701 9.79055 12.2571 9.97341C11.7441 10.1562 11.278 10.4508 10.8928 10.8359C10.5075 11.2209 10.2127 11.6869 10.0295 12.1999C9.84636 12.713 9.77946 13.2602 9.83361 13.8024L9.81539 13.7841C9.86904 14.4218 9.7829 15.0635 9.56314 15.6646C9.34329 16.2655 8.99509 16.8114 8.54273 17.2638C8.09033 17.7163 7.5447 18.0646 6.94389 18.2846C6.34308 18.5044 5.70155 18.5905 5.06404 18.5369L5.08226 18.5551C4.31958 18.4834 3.55336 18.6489 2.88812 19.0289C2.22289 19.4089 1.69102 19.9848 1.36508 20.6783C1.03912 21.3717 0.934946 22.1488 1.06677 22.9037C1.19859 23.6585 1.55999 24.3543 2.10166 24.8961C2.64334 25.438 3.33891 25.7995 4.09353 25.9313C4.84815 26.0631 5.62505 25.9589 6.31829 25.6329C7.01152 25.3069 7.58734 24.7749 7.96718 24.1095C8.34707 23.4439 8.51246 22.6776 8.4408 21.9146L8.46003 21.9329C8.40618 21.2951 8.49222 20.6533 8.71197 20.0522C8.93162 19.4512 9.27993 18.9053 9.73229 18.4527C10.1847 18.0002 10.7304 17.6518 11.3313 17.4321C11.9322 17.2123 12.5738 17.1262 13.2114 17.1801Z" fill="white"/>
<path d="M6.42755 15.1482C6.8112 14.7623 7.10493 14.2963 7.28778 13.7837C7.47062 13.271 7.53808 12.7243 7.48532 12.1826L7.50454 12.2008C7.45069 11.5629 7.53669 10.9209 7.75655 10.3197C7.97642 9.71842 8.32485 9.17247 8.77752 8.71987C9.23018 8.2673 9.77607 7.919 10.3772 7.69934C10.9784 7.47966 11.6202 7.3939 12.2579 7.44805L12.2387 7.42982C13.0011 7.50128 13.767 7.33574 14.432 6.9558C15.0969 6.57588 15.6284 6.00003 15.9542 5.30681C16.28 4.61358 16.384 3.83672 16.2522 3.08217C16.1204 2.32761 15.7591 1.63209 15.2176 1.09045C14.6762 0.548815 13.9808 0.187428 13.2265 0.0555776C12.4722 -0.0762826 11.6955 0.0278245 11.0026 0.353673C10.3095 0.679521 9.73386 1.21127 9.35407 1.87639C8.97419 2.54151 8.80869 3.30764 8.88015 4.07029L8.86193 4.05207C8.91578 4.6898 8.82975 5.3316 8.60999 5.93268C8.39024 6.53375 8.04206 7.07961 7.58964 7.53216C7.13723 7.98471 6.59152 8.33305 5.99063 8.55281C5.38974 8.77263 4.74813 8.85869 4.11059 8.80482L4.12881 8.82305C3.50586 8.76716 2.87888 8.86952 2.30599 9.12053C1.73309 9.37153 1.2328 9.76317 0.851492 10.2591C0.47018 10.7549 0.220183 11.3392 0.12465 11.9574C0.0291269 12.5757 0.0911656 13.2082 0.305017 13.796C0.518868 14.384 0.877628 14.9084 1.34804 15.3207C1.81844 15.7331 2.38528 16.0199 2.99604 16.1548C3.60678 16.2896 4.24167 16.268 4.84188 16.0921C5.44209 15.9161 5.98818 15.5915 6.42957 15.1482H6.42755Z" fill="white"/>
<path d="M35.6906 20V10.532H38.1183V12.8036L37.9448 12.4741C38.1529 11.6765 38.494 11.1389 38.968 10.8614C39.4535 10.5724 40.0257 10.4279 40.6847 10.4279H41.2396V12.6822H40.4246C39.7887 12.6822 39.2743 12.8787 38.8812 13.2718C38.4882 13.6533 38.2917 14.1966 38.2917 14.9018V20H35.6906ZM46.1252 20.2081C45.3622 20.2081 44.709 20.0462 44.1657 19.7225C43.6339 19.3873 43.2293 18.9249 42.9518 18.3353C42.6744 17.7457 42.5357 17.0579 42.5357 16.2717V10.532H45.1368V16.0637C45.1368 16.422 45.2061 16.7399 45.3449 17.0174C45.4951 17.2833 45.7032 17.4914 45.9691 17.6417C46.235 17.7919 46.5356 17.8671 46.8708 17.8671C47.2177 17.8671 47.5182 17.7919 47.7726 17.6417C48.0385 17.4914 48.2408 17.2833 48.3795 17.0174C48.5298 16.7399 48.6049 16.422 48.6049 16.0637V10.532H51.206V20H48.7783V18.1272L48.917 18.5434C48.6974 19.1098 48.339 19.5318 47.8419 19.8093C47.3564 20.0751 46.7841 20.2081 46.1252 20.2081ZM56.3845 20.2081C55.7025 20.2081 55.1129 20.0983 54.6158 19.8786C54.1187 19.659 53.7372 19.3468 53.4713 18.9422C53.2054 18.526 53.0725 18.0347 53.0725 17.4683C53.0725 16.9365 53.1938 16.4683 53.4366 16.0637C53.6794 15.6475 54.0493 15.3007 54.5464 15.0232C55.0551 14.7458 55.6851 14.5492 56.4365 14.4336L59.3324 13.9654V15.8729L56.9047 16.3064C56.5348 16.3758 56.2516 16.4972 56.0551 16.6706C55.8585 16.8324 55.7603 17.0694 55.7603 17.3816C55.7603 17.6706 55.8701 17.896 56.0897 18.0578C56.3094 18.2197 56.5811 18.3006 56.9047 18.3006C57.3325 18.3006 57.7082 18.2081 58.0319 18.0232C58.3556 17.8382 58.6041 17.5896 58.7775 17.2775C58.9625 16.9538 59.055 16.6012 59.055 16.2197V13.7573C59.055 13.399 58.9105 13.0984 58.6215 12.8556C58.344 12.6129 57.9625 12.4915 57.477 12.4915C57.0146 12.4915 56.6042 12.6186 56.2458 12.873C55.899 13.1273 55.6447 13.4626 55.4828 13.8787L53.4019 12.8903C53.5869 12.3585 53.8817 11.9019 54.2863 11.5204C54.6909 11.1389 55.1765 10.8441 55.7429 10.636C56.3094 10.4279 56.9279 10.3239 57.5984 10.3239C58.396 10.3239 59.1012 10.4684 59.7139 10.7574C60.3266 11.0464 60.8006 11.451 61.1359 11.9713C61.4827 12.4799 61.6561 13.0753 61.6561 13.7573V20H59.2284V18.474L59.818 18.37C59.5405 18.7862 59.2342 19.133 58.8989 19.4104C58.5637 19.6763 58.188 19.8728 57.7718 20C57.3556 20.1387 56.8932 20.2081 56.3845 20.2081ZM63.9105 20V10.532H66.3382V12.4048L66.1995 11.9886C66.4192 11.4221 66.7717 11.006 67.2573 10.7401C67.7544 10.4626 68.3324 10.3239 68.9914 10.3239C69.7081 10.3239 70.3324 10.4742 70.8642 10.7747C71.4075 11.0753 71.8295 11.4973 72.13 12.0406C72.4306 12.5724 72.5809 13.1967 72.5809 13.9134V20H69.9798V14.4683C69.9798 14.0984 69.9046 13.7805 69.7544 13.5146C69.6156 13.2487 69.4133 13.0406 69.1474 12.8903C68.8931 12.74 68.5925 12.6649 68.2457 12.6649C67.9105 12.6649 67.6099 12.74 67.344 12.8903C67.0781 13.0406 66.87 13.2487 66.7197 13.5146C66.581 13.7805 66.5116 14.0984 66.5116 14.4683V20H63.9105ZM79.2854 23.815C78.5571 23.815 77.8808 23.6936 77.2565 23.4508C76.6322 23.208 76.0947 22.867 75.6438 22.4277C75.2045 22 74.8866 21.4913 74.6901 20.9017L77.1004 20.052C77.2276 20.4913 77.4877 20.8381 77.8808 21.0925C78.2738 21.3468 78.742 21.474 79.2854 21.474C79.7131 21.474 80.083 21.393 80.3952 21.2312C80.7073 21.0809 80.9443 20.8555 81.1062 20.5549C81.2796 20.2543 81.3663 19.9017 81.3663 19.4971V17.3295L81.8691 17.9538C81.5454 18.4856 81.1293 18.8844 80.6206 19.1503C80.112 19.4046 79.5166 19.5318 78.8345 19.5318C77.9559 19.5318 77.1698 19.3353 76.4762 18.9422C75.7826 18.5376 75.2392 17.9885 74.8462 17.2948C74.4531 16.5897 74.2566 15.792 74.2566 14.9018C74.2566 14.0117 74.4531 13.2256 74.8462 12.5435C75.2392 11.8499 75.7768 11.3065 76.4588 10.9135C77.1409 10.5204 77.9155 10.3239 78.7825 10.3239C79.4646 10.3239 80.0599 10.4626 80.5686 10.7401C81.0772 11.006 81.5108 11.4163 81.8691 11.9713L81.5397 12.5955V10.532H83.9674V19.4971C83.9674 20.3295 83.7651 21.0693 83.3604 21.7167C82.9558 22.3757 82.4009 22.8901 81.6957 23.2601C81.0021 23.63 80.1987 23.815 79.2854 23.815ZM79.1987 17.1735C79.638 17.1735 80.0195 17.081 80.3432 16.896C80.6669 16.711 80.9154 16.4509 81.0888 16.1157C81.2738 15.7804 81.3663 15.3874 81.3663 14.9365C81.3663 14.4857 81.2738 14.0926 81.0888 13.7573C80.9038 13.4105 80.6495 13.1446 80.3258 12.9597C80.0021 12.7631 79.6264 12.6649 79.1987 12.6649C78.7594 12.6649 78.3663 12.7631 78.0195 12.9597C77.6843 13.1446 77.4184 13.4105 77.2218 13.7573C77.0369 14.0926 76.9444 14.4857 76.9444 14.9365C76.9444 15.3758 77.0369 15.7631 77.2218 16.0983C77.4184 16.4336 77.6843 16.6995 78.0195 16.896C78.3663 17.081 78.7594 17.1735 79.1987 17.1735ZM91.5355 20.2081C90.8881 20.2081 90.287 20.0925 89.7321 19.8613C89.1887 19.6185 88.7494 19.2659 88.4142 18.8035L88.6569 18.2659V20H86.2292V6.87308H88.8304V12.3354L88.4315 11.8152C88.7437 11.3412 89.1656 10.977 89.6974 10.7227C90.2407 10.4568 90.8592 10.3239 91.5528 10.3239C92.4546 10.3239 93.2696 10.5435 93.9979 10.9828C94.7262 11.4221 95.3042 12.0175 95.732 12.7689C96.1597 13.5088 96.3736 14.3411 96.3736 15.266C96.3736 16.1793 96.1597 17.0116 95.732 17.763C95.3158 18.5145 94.7435 19.1098 94.0152 19.5491C93.2869 19.9884 92.4603 20.2081 91.5355 20.2081ZM91.2234 17.8671C91.7089 17.8671 92.1367 17.7573 92.5066 17.5376C92.8765 17.318 93.1655 17.0116 93.3736 16.6186C93.5817 16.2255 93.6858 15.7746 93.6858 15.266C93.6858 14.7573 93.5817 14.3122 93.3736 13.9308C93.1655 13.5377 92.8765 13.2313 92.5066 13.0117C92.1367 12.7805 91.7089 12.6649 91.2234 12.6649C90.761 12.6649 90.3448 12.7747 89.9748 12.9944C89.6165 13.214 89.3332 13.5204 89.1251 13.9134C88.9286 14.3065 88.8304 14.7573 88.8304 15.266C88.8304 15.7746 88.9286 16.2255 89.1251 16.6186C89.3332 17.0116 89.6165 17.318 89.9748 17.5376C90.3448 17.7573 90.761 17.8671 91.2234 17.8671ZM101.174 20.2081C100.492 20.2081 99.9027 20.0983 99.4056 19.8786C98.9085 19.659 98.527 19.3468 98.2611 18.9422C97.9952 18.526 97.8623 18.0347 97.8623 17.4683C97.8623 16.9365 97.9837 16.4683 98.2264 16.0637C98.4692 15.6475 98.8392 15.3007 99.3363 15.0232C99.8449 14.7458 100.475 14.5492 101.226 14.4336L104.122 13.9654V15.8729L101.695 16.3064C101.325 16.3758 101.041 16.4972 100.845 16.6706C100.648 16.8324 100.55 17.0694 100.55 17.3816C100.55 17.6706 100.66 17.896 100.88 18.0578C101.099 18.2197 101.371 18.3006 101.695 18.3006C102.122 18.3006 102.498 18.2081 102.822 18.0232C103.145 17.8382 103.394 17.5896 103.567 17.2775C103.752 16.9538 103.845 16.6012 103.845 16.2197V13.7573C103.845 13.399 103.7 13.0984 103.411 12.8556C103.134 12.6129 102.752 12.4915 102.267 12.4915C101.804 12.4915 101.394 12.6186 101.036 12.873C100.689 13.1273 100.434 13.4626 100.273 13.8787L98.1918 12.8903C98.3767 12.3585 98.6715 11.9019 99.0761 11.5204C99.4808 11.1389 99.9663 10.8441 100.533 10.636C101.099 10.4279 101.718 10.3239 102.388 10.3239C103.186 10.3239 103.891 10.4684 104.504 10.7574C105.116 11.0464 105.59 11.451 105.926 11.9713C106.273 12.4799 106.446 13.0753 106.446 13.7573V20H104.018V18.474L104.608 18.37C104.33 18.7862 104.024 19.133 103.689 19.4104C103.354 19.6763 102.978 19.8728 102.562 20C102.145 20.1387 101.683 20.2081 101.174 20.2081ZM113.348 20.2081C112.4 20.2081 111.544 19.9942 110.781 19.5665C110.03 19.1272 109.429 18.5318 108.978 17.7804C108.539 17.029 108.319 16.185 108.319 15.2486C108.319 14.3122 108.539 13.4741 108.978 12.7342C109.417 11.9828 110.018 11.3932 110.781 10.9655C111.544 10.5378 112.4 10.3239 113.348 10.3239C114.053 10.3239 114.706 10.4453 115.307 10.688C115.908 10.9308 116.423 11.2718 116.851 11.7111C117.278 12.1389 117.585 12.6475 117.77 13.2371L115.515 14.2082C115.353 13.7342 115.076 13.3585 114.683 13.0811C114.301 12.8036 113.856 12.6649 113.348 12.6649C112.897 12.6649 112.492 12.7747 112.134 12.9944C111.787 13.214 111.51 13.5204 111.301 13.9134C111.105 14.3065 111.007 14.7573 111.007 15.266C111.007 15.7746 111.105 16.2255 111.301 16.6186C111.51 17.0116 111.787 17.318 112.134 17.5376C112.492 17.7573 112.897 17.8671 113.348 17.8671C113.868 17.8671 114.319 17.7284 114.7 17.4509C115.082 17.1735 115.353 16.7977 115.515 16.3238L117.77 17.3122C117.596 17.8671 117.296 18.3642 116.868 18.8035C116.44 19.2428 115.926 19.5896 115.325 19.8439C114.723 20.0867 114.064 20.2081 113.348 20.2081ZM122.579 20.2081C121.897 20.2081 121.307 20.0983 120.81 19.8786C120.313 19.659 119.931 19.3468 119.665 18.9422C119.4 18.526 119.267 18.0347 119.267 17.4683C119.267 16.9365 119.388 16.4683 119.631 16.0637C119.873 15.6475 120.243 15.3007 120.741 15.0232C121.249 14.7458 121.879 14.5492 122.631 14.4336L125.527 13.9654V15.8729L123.099 16.3064C122.729 16.3758 122.446 16.4972 122.249 16.6706C122.053 16.8324 121.954 17.0694 121.954 17.3816C121.954 17.6706 122.064 17.896 122.284 18.0578C122.503 18.2197 122.775 18.3006 123.099 18.3006C123.527 18.3006 123.902 18.2081 124.226 18.0232C124.55 17.8382 124.798 17.5896 124.972 17.2775C125.157 16.9538 125.249 16.6012 125.249 16.2197V13.7573C125.249 13.399 125.105 13.0984 124.816 12.8556C124.538 12.6129 124.157 12.4915 123.671 12.4915C123.209 12.4915 122.798 12.6186 122.44 12.873C122.093 13.1273 121.839 13.4626 121.677 13.8787L119.596 12.8903C119.781 12.3585 120.076 11.9019 120.48 11.5204C120.885 11.1389 121.371 10.8441 121.937 10.636C122.503 10.4279 123.122 10.3239 123.792 10.3239C124.59 10.3239 125.295 10.4684 125.908 10.7574C126.521 11.0464 126.995 11.451 127.33 11.9713C127.677 12.4799 127.85 13.0753 127.85 13.7573V20H125.423V18.474L126.012 18.37C125.735 18.7862 125.428 19.133 125.093 19.4104C124.758 19.6763 124.382 19.8728 123.966 20C123.55 20.1387 123.087 20.2081 122.579 20.2081Z" fill="white"/>
</svg>
