<svg width="27" height="27" viewBox="0 0 27 27" fill="none" xmlns="http://www.w3.org/2000/svg">
<path opacity="0.9" d="M11.2899 24.1231C10.2267 25.2487 8.87834 26.1086 7.35786 26.5815C6.49403 26.8552 5.57562 26.9998 4.62212 26.9998C3.23838 26.9998 1.92119 26.6912 0.744629 26.1398V19.9724C1.43664 20.5784 2.30019 20.9379 3.23838 20.9379C3.29686 20.9379 3.35951 20.9379 3.41799 20.9298C3.42969 20.9337 3.44166 20.9337 3.44946 20.9298C3.50014 20.9379 3.555 20.9379 3.60958 20.9379C5.68116 20.9379 7.35786 18.9092 7.35786 16.4037V17.076C7.35786 19.9958 8.91343 22.5753 11.2899 24.1231Z" fill="white"/>
<path opacity="0.8" d="M13.7912 1.41858V17.8306C13.7912 20.2614 12.8414 22.4778 11.29 24.123C8.91347 22.5756 7.35791 19.9957 7.35791 17.0762V1.41858H13.7912Z" fill="white"/>
<path opacity="0.7" d="M16.8795 18.5653V25.6553C16.7623 25.6595 16.649 25.6631 16.5317 25.6631C15.5779 25.6631 14.6556 25.5264 13.7918 25.2724C12.889 25.0106 12.0485 24.6194 11.2905 24.1231C12.8419 22.4779 13.7918 20.2615 13.7918 17.8304V16.1342C13.7918 17.416 14.7063 18.4714 15.8712 18.5653H15.887C15.9374 18.5731 15.9884 18.5731 16.0391 18.5731C16.0901 18.5731 16.141 18.5731 16.1917 18.5653H16.8795Z" fill="white"/>
<path opacity="0.7" d="M19.4164 15.1765H13.792V8.17255H19.4164V15.1765Z" fill="white"/>
<path opacity="0.6" d="M26.0799 15.1765H19.416V8.17255H26.0799V15.1765Z" fill="white"/>
<path opacity="0.5" d="M26.0799 25.4287H19.416V15.1766H26.0799V25.4287Z" fill="white"/>
<path opacity="0.5" d="M26.0799 3.33355C26.0799 5.17066 24.587 6.66357 22.746 6.66357C20.9092 6.66357 19.416 5.17066 19.416 3.33355C19.416 1.49282 20.9092 -0.000368118 22.746 -0.000368118C24.587 -0.000368118 26.0799 1.49282 26.0799 3.33355Z" fill="white"/>
</svg>
